<?xml version="1.0" standalone="no"?><!DOCTYPE svg PUBLIC "-//W3C//DTD SVG 1.1//EN" "http://www.w3.org/Graphics/SVG/1.1/DTD/svg11.dtd"><svg t="1757598622729" class="icon" viewBox="0 0 1024 1024" version="1.1" xmlns="http://www.w3.org/2000/svg" p-id="100411" xmlns:xlink="http://www.w3.org/1999/xlink" width="200" height="200"><path d="M5.919075 5.91994h1012.16099v1012.16099H5.919075z" fill="#FFFFFF" p-id="100412"></path><path d="M38.490681 277.260815m20.064645 0l906.855048 0q20.064644 0 20.064644 20.064644l0 142.826828q0 20.064644-20.064644 20.064644l-906.855048 0q-20.064644 0-20.064645-20.064644l0-142.826828q0-20.064644 20.064645-20.064644Z" fill="#C7494E" p-id="100413"></path><path d="M965.443815 465.233093H58.555326a25.114247 25.114247 0 0 1-25.080806-25.080806V297.325459a25.147688 25.147688 0 0 1 25.080806-25.080805h906.888489a25.147688 25.147688 0 0 1 25.080805 25.080805v142.826828a25.114247 25.114247 0 0 1-25.080805 25.080806zM58.555326 282.276976a15.081924 15.081924 0 0 0-15.048484 15.048483v142.826828a15.081924 15.081924 0 0 0 15.048484 15.048483h906.888489a15.081924 15.081924 0 0 0 15.048483-15.048483V297.325459a15.081924 15.081924 0 0 0-15.048483-15.048483z" fill="#1A3A66" p-id="100414"></path><path d="M72.667459 460.216931h878.664223v558.766908H72.667459z" fill="#C7494E" p-id="100415"></path><path d="M951.331682 1024H72.801223a5.016161 5.016161 0 0 1-5.016161-5.016161V460.216931a5.016161 5.016161 0 0 1 5.016161-5.016161h878.530459a5.016161 5.016161 0 0 1 5.016161 5.016161v558.766908a5.016161 5.016161 0 0 1-5.016161 5.016161z m-873.648062-10.032322h868.6319V465.233093H77.68362z" fill="#1A3A66" p-id="100416"></path><path d="M72.667459 554.82173h878.664223" fill="#C7494E" p-id="100417"></path><path d="M951.331682 559.837891H72.801223a5.016161 5.016161 0 0 1 0-10.032322h878.530459a5.016161 5.016161 0 0 1 0 10.032322z" fill="#1A3A66" p-id="100418"></path><path d="M72.667459 908.594853h878.664223" fill="#C7494E" p-id="100419"></path><path d="M951.331682 913.611014H72.801223a5.016161 5.016161 0 1 1 0-10.032322h878.530459a5.016161 5.016161 0 0 1 0 10.032322z" fill="#1A3A66" p-id="100420"></path><path d="M72.667459 554.82173h878.664223V908.594853H72.667459z" fill="#E7E4D6" p-id="100421"></path><path d="M951.331682 913.611014H72.801223a5.016161 5.016161 0 0 1-5.016161-5.016161V554.82173a5.016161 5.016161 0 0 1 5.016161-5.016161h878.530459a5.016161 5.016161 0 0 1 5.016161 5.016161V908.594853a5.016161 5.016161 0 0 1-5.016161 5.016161z m-873.648062-10.032322h868.6319V559.837891H77.68362z" fill="#1A3A66" p-id="100422"></path><path d="M458.176162 460.216931h107.613376v558.766908h-107.613376z" fill="#E7E4D6" p-id="100423"></path><path d="M565.789538 1024h-107.613376a5.016161 5.016161 0 0 1-5.016162-5.016161V460.216931a5.016161 5.016161 0 0 1 5.016162-5.016161h107.613376a5.016161 5.016161 0 0 1 5.016161 5.016161v558.766908a5.016161 5.016161 0 0 1-5.016161 5.016161z m-102.597215-10.032322h97.581054V465.233093h-97.581054z" fill="#1A3A66" p-id="100424"></path><path d="M458.176162 460.216931l107.613376 107.613377" fill="#C7494E" p-id="100425"></path><path d="M565.789538 572.846469a5.116484 5.116484 0 0 1-3.544754-1.471407l-107.613376-107.613377a5.049602 5.049602 0 0 1 0-7.089507 4.98272 4.98272 0 0 1 7.089507 0l107.613377 107.613376a5.016161 5.016161 0 0 1-3.544754 8.560915z" fill="#1A3A66" p-id="100426"></path><path d="M458.176162 593.212083l107.613376 107.613377" fill="#C7494E" p-id="100427"></path><path d="M565.789538 705.841621a4.949279 4.949279 0 0 1-3.544754-1.471407l-107.613376-107.613377a5.049602 5.049602 0 0 1 0-7.089508 4.98272 4.98272 0 0 1 7.089507 0l107.613377 107.613377a4.98272 4.98272 0 0 1 0 7.089508 4.848956 4.848956 0 0 1-3.544754 1.471407z" fill="#1A3A66" p-id="100428"></path><path d="M458.176162 726.207235l107.613376 107.613376" fill="#C7494E" p-id="100429"></path><path d="M565.789538 838.836773a4.949279 4.949279 0 0 1-3.544754-1.471408l-107.613376-107.613376a5.016161 5.016161 0 0 1 7.089507-7.089508l107.613377 107.613377a4.98272 4.98272 0 0 1 0 7.089507 4.848956 4.848956 0 0 1-3.544754 1.471408z" fill="#1A3A66" p-id="100430"></path><path d="M458.176162 859.202387l107.613376 107.613376" fill="#C7494E" p-id="100431"></path><path d="M565.789538 971.831924a4.949279 4.949279 0 0 1-3.544754-1.471407L454.631408 862.780582a5.016161 5.016161 0 0 1 7.089507-7.089508l107.613377 107.613376a4.98272 4.98272 0 0 1 0 7.089508 4.848956 4.848956 0 0 1-3.544754 1.437966z" fill="#1A3A66" p-id="100432"></path><path d="M511.98285 222.417453l106.275733 431.791149 118.381403-108.951019-45.011686-64.675037-179.64545-258.165093z" fill="#C7494E" p-id="100433"></path><path d="M618.258583 659.224764a5.317131 5.317131 0 0 1-1.437966-0.200647 5.116484 5.116484 0 0 1-3.344107-3.611636l-106.342616-431.791149a4.98272 4.98272 0 0 1 2.80905-5.785306 5.083043 5.083043 0 0 1 6.186599 1.705495l224.623695 322.84013a4.98272 4.98272 0 0 1-0.735704 6.688214l-118.347961 108.95102a5.049602 5.049602 0 0 1-3.41099 1.203879zM523.319374 247.464818L621.234839 644.77822l108.917578-100.323223z" fill="#1A3A66" p-id="100434"></path><path d="M512.31726 222.417453l-106.275733 431.791149-118.381402-108.951019 45.011685-64.675037 179.64545-258.165093z" fill="#C7494E" p-id="100435"></path><path d="M406.041527 659.224764a5.116484 5.116484 0 0 1-3.344107-1.337643l-118.414844-108.95102a4.98272 4.98272 0 0 1-0.735704-6.688215l224.657136-322.706365a5.016161 5.016161 0 0 1 8.962208 4.079811L410.923924 655.445922a5.116484 5.116484 0 0 1-3.344108 3.611636 5.317131 5.317131 0 0 1-1.538289 0.167206z m-111.76007-114.702885l108.917579 100.323223L500.846972 247.464818z" fill="#1A3A66" p-id="100436"></path><path d="M511.98285 236.763674a5.083043 5.083043 0 0 1-3.979488-1.973023 5.016161 5.016161 0 0 1 0.93635-7.022626 778.842616 778.842616 0 0 1 100.891721-65.778593 714.167579 714.167579 0 0 1 117.879786-51.231725 633.072974 633.072974 0 0 1 125.872203-27.455122c26.752859-3.043138 54.508951-4.447663 75.97812 14.446544a65.611387 65.611387 0 0 1 21.937345 48.55644 64.875684 64.875684 0 1 1-129.751368 0 5.016161 5.016161 0 0 1 10.032323 0 54.843362 54.843362 0 1 0 91.126927-41.032198c-18.392591-16.18548-42.737693-14.914719-68.15291-12.005346A625.348086 625.348086 0 0 0 730.821239 120.388736 703.399553 703.399553 0 0 0 614.546624 170.817876a768.576206 768.576206 0 0 0-99.554078 64.909125 5.083043 5.083043 0 0 1-3.009696 1.036673z" fill="#C7494E" p-id="100437"></path><path d="M511.98285 236.763674a4.915838 4.915838 0 0 1-3.043138-1.036673 766.636624 766.636624 0 0 0-99.587519-64.909125A700.991796 700.991796 0 0 0 293.144461 120.388736a625.013675 625.013675 0 0 0-123.731974-27.020388C143.830065 90.29177 119.618727 89.087891 101.058931 105.273371a55.478742 55.478742 0 0 0-18.526355 41.032198 54.843362 54.843362 0 0 0 109.686723 0 5.016161 5.016161 0 0 1 10.032322 0 64.875684 64.875684 0 1 1-107.814023-48.55644c21.46917-18.894207 49.292143-17.489682 75.94468-14.446544a632.872328 632.872328 0 0 1 125.905644 27.455122 714.167579 714.167579 0 0 1 117.879786 51.231725 783.424043 783.424043 0 0 1 100.891721 65.778593 5.016161 5.016161 0 0 1-3.076579 8.995649z" fill="#C7494E" p-id="100438"></path><path d="M511.98285 235.091621C463.12544 208.138115 410.556072 177.706737 382.866863 127.076951c-9.162854-16.720537-15.182248-35.781949-13.6774-54.843361a74.673919 74.673919 0 0 1 40.430259-59.725759c37.821855-18.827325 78.385878 0.367852 102.363128 31.568374 24.010691-31.200522 64.541273-50.395699 102.396569-31.568374A74.573595 74.573595 0 0 1 654.675913 72.267031c1.538289 19.061412-4.481104 38.089383-13.677399 54.843361-27.588886 50.596345-80.158255 81.027723-129.015664 107.981229z" fill="#E7E4D6" p-id="100439"></path><path d="M511.98285 240.107782a5.083043 5.083043 0 0 1-2.407758-0.635381c-42.871457-23.642839-101.593983-56.04724-131.08901-109.954251-10.935231-20.064644-15.750746-39.393585-14.279339-57.652412a79.756962 79.756962 0 0 1 43.172427-63.872452c39.393585-19.529587 79.957608-0.535057 104.60368 28.123944 24.679513-28.659001 65.243536-47.686972 104.637121-28.123944a79.756962 79.756962 0 0 1 43.172426 63.872452c1.471407 18.258826-3.344107 37.654649-14.279338 57.652412-29.528468 53.907011-88.217554 86.311412-131.089011 109.954251a5.317131 5.317131 0 0 1-2.441198 0.635381zM440.653039 10.033192a64.340627 64.340627 0 0 0-28.893088 6.888861 69.523993 69.523993 0 0 0-37.65465 55.679388c-1.304202 16.051716 3.344107 34.043013 13.07546 52.034312 25.615863 46.817504 71.563899 75.242417 124.701766 104.637121 53.171308-29.394704 99.119344-57.853058 124.735206-104.637121 9.831676-17.991298 14.346221-35.982596 13.07546-52.034312a69.523993 69.523993 0 0 0-37.554326-55.612506c-36.484212-18.125062-74.573595 2.073347-96.176529 30.096967a5.183366 5.183366 0 0 1-7.958976 0C492.118852 26.4862 467.405898 10.033192 440.653039 10.033192z" fill="#1A3A66" p-id="100440"></path><path d="M511.98285 235.091621C463.12544 208.138115 410.556072 177.706737 382.866863 127.076951c-9.162854-16.720537-15.182248-35.781949-13.6774-54.843361a74.673919 74.673919 0 0 1 40.430259-59.725759c37.821855-18.827325 78.385878 0.367852 102.363128 31.568374 24.010691-31.200522 64.541273-50.395699 102.396569-31.568374A74.573595 74.573595 0 0 1 654.675913 72.267031c1.538289 19.061412-4.481104 38.089383-13.677399 54.843361-27.588886 50.596345-80.158255 81.027723-129.015664 107.981229z" fill="#E7E4D6" p-id="100441"></path><path d="M511.98285 240.107782a5.083043 5.083043 0 0 1-2.407758-0.635381c-42.871457-23.642839-101.593983-56.04724-131.08901-109.954251-10.935231-20.064644-15.750746-39.393585-14.279339-57.652412a79.756962 79.756962 0 0 1 43.172427-63.872452c39.393585-19.529587 79.957608-0.535057 104.60368 28.123944 24.679513-28.659001 65.243536-47.686972 104.637121-28.123944a79.756962 79.756962 0 0 1 43.172426 63.872452c1.471407 18.258826-3.344107 37.654649-14.279338 57.652412-29.528468 53.907011-88.217554 86.311412-131.089011 109.954251a5.317131 5.317131 0 0 1-2.441198 0.635381zM440.653039 10.033192a64.340627 64.340627 0 0 0-28.893088 6.888861 69.523993 69.523993 0 0 0-37.65465 55.679388c-1.304202 16.051716 3.344107 34.043013 13.07546 52.034312 25.615863 46.817504 71.563899 75.242417 124.701766 104.637121 53.171308-29.394704 99.119344-57.853058 124.735206-104.637121 9.831676-17.991298 14.346221-35.982596 13.07546-52.034312a69.523993 69.523993 0 0 0-37.554326-55.612506c-36.484212-18.125062-74.573595 2.073347-96.176529 30.096967a5.183366 5.183366 0 0 1-7.958976 0C492.118852 26.4862 467.405898 10.033192 440.653039 10.033192z" fill="#1A3A66" p-id="100442"></path><path d="M511.98285 235.091621c1.103555 55.779712 1.036673 116.508702-28.926529 165.800845-10.032322 16.319244-23.408752 31.066758-40.664346 39.259821a74.673919 74.673919 0 0 1-71.965192-5.116484c-35.213451-23.408752-38.858528-68.086027-23.843486-104.436475-38.992292-5.183366-75.911238-30.732347-78.553083-72.901541a74.673919 74.673919 0 0 1 31.568374-64.875684c15.717305-10.834908 35.213451-15.148807 54.341745-15.583541 57.652412-1.304202 110.288662 28.993411 158.042517 57.853059z" fill="#E7E4D6" p-id="100443"></path><path d="M411.158011 452.057309a79.021258 79.021258 0 0 1-43.473396-12.841372c-36.785182-24.311661-40.4637-68.988936-27.956738-104.670562C302.541403 327.723396 265.789662 301.906887 263.047494 258.032197A79.589756 79.589756 0 0 1 296.85642 188.708851c15.081924-10.400174 34.277101-15.951392 57.050472-16.48645 61.498135-1.270761 118.849577 33.441074 160.784685 58.555321a5.016161 5.016161 0 0 1 2.407757 4.213575c0.969791 48.957733 2.273993 115.973645-29.662233 168.509573-11.83814 19.462705-26.251243 33.441074-42.804575 41.199403a77.717056 77.717056 0 0 1-33.474515 7.357036z m-53.505718-269.836027h-3.611636c-20.499378 0.468175-38.323471 5.551218-51.599578 14.714073A69.390229 69.390229 0 0 0 273.046375 257.49714c2.541522 40.630905 39.092616 63.538041 74.172303 68.219791a4.98272 4.98272 0 0 1 3.979487 6.888862c-13.37643 32.738812-11.938463 75.844356 22.004227 98.350199a69.457111 69.457111 0 0 0 66.882148 4.782073c14.580308-6.922302 27.889856-19.863998 38.557559-37.35368 27.689209-45.580184 29.361263-99.587519 28.257707-160.34995-50.730109-30.698906-97.380408-55.813153-149.214072-55.813153z" fill="#1A3A66" p-id="100444"></path><path d="M512.61823 235.091621c-1.070114 55.779712-1.003232 116.508702 28.95997 165.800845 10.032322 16.319244 23.408752 31.066758 40.664346 39.259821a74.673919 74.673919 0 0 0 71.965192-5.116484c35.18001-23.408752 38.858528-68.086027 23.843486-104.436475 38.992292-5.183366 75.877797-30.732347 78.519642-72.901541a74.70736 74.70736 0 0 0-31.668697-64.875684c-15.750746-10.834908-35.246892-15.148807-54.341746-15.583541-57.552089-1.304202-110.154898 28.993411-157.942193 57.853059z" fill="#E7E4D6" p-id="100445"></path><path d="M613.443069 452.057309a77.850821 77.850821 0 0 1-33.441074-7.357036c-16.553332-7.892093-30.932994-21.736698-42.771134-41.199403-31.869344-52.368722-30.565142-119.55184-29.695674-168.509573a5.049602 5.049602 0 0 1 2.441198-4.213575c41.901666-25.281452 99.219667-59.792641 160.751244-58.555321 22.773371 0.535057 42.001989 6.086275 57.083913 16.48645A79.756962 79.756962 0 0 1 761.68735 258.032197C758.844859 301.906887 722.093118 327.723396 684.940085 334.411611c12.473521 35.681626 8.661238 80.258578-27.956738 104.670562a79.221905 79.221905 0 0 1-43.540278 12.975136zM517.567509 237.934112c-1.136997 60.762432 0.535057 114.769766 28.257708 160.34995 10.634262 17.489682 23.97725 30.431377 38.524117 37.35368a69.523993 69.523993 0 0 0 66.982472-4.782074c33.909249-22.505843 35.48098-65.611387 21.970785-98.350199a5.016161 5.016161 0 0 1 0.30097-4.414221 4.949279 4.949279 0 0 1 3.678518-2.47464C712.49553 321.035181 749.046624 298.027722 751.655028 257.49714a69.557434 69.557434 0 0 0-29.394704-60.428021c-13.37643-9.162854-31.13364-14.245898-51.633019-14.714072-53.405395-1.371084-100.992044 24.27822-153.059796 55.579065z" fill="#1A3A66" p-id="100446"></path><path d="M512.31726 240.475633a5.083043 5.083043 0 0 1-3.711959-1.638612c-2.106788-2.307434-51.766783-57.418324-51.097961-127.076082a5.016161 5.016161 0 0 1 5.016161-4.949279 5.016161 5.016161 0 0 1 4.882397 4.915838c-0.535057 55.044008 33.441074 101.761189 44.777598 115.940204 11.403406-14.212456 45.279214-60.963078 44.744157-115.940204a5.016161 5.016161 0 0 1 4.98272-5.049602 5.016161 5.016161 0 0 1 5.016162 4.949279c0.702263 69.791522-48.957733 124.902412-51.097962 127.076082a4.949279 4.949279 0 0 1-3.511313 1.772376z" fill="#1A3A66" p-id="100447"></path><path d="M430.018777 345.447165a5.016161 5.016161 0 0 1-2.474639-9.396942c47.887618-26.986947 71.430134-79.723521 78.018026-96.711586-18.091621-2.775609-75.443063-8.594356-122.762184 19.195176a5.016161 5.016161 0 0 1-5.116484-8.627797c60.193933-35.48098 132.660741-20.064644 135.703879-19.362382a5.016161 5.016161 0 0 1 3.344107 2.407758 5.083043 5.083043 0 0 1 0.434734 4.012929c-0.93635 2.976256-23.843486 73.570363-84.605917 107.847464a5.149925 5.149925 0 0 1-2.541522 0.63538z" fill="#1A3A66" p-id="100448"></path><path d="M594.48198 345.447165a4.915838 4.915838 0 0 1-2.441199-0.63538c-60.762432-34.310542-83.602685-104.871208-84.605917-107.847464a5.049602 5.049602 0 0 1 3.678518-6.420687c3.076579-0.668821 75.610269-16.118598 135.703879 19.362382a5.016161 5.016161 0 0 1-5.083044 8.627797c-47.419443-27.990179-104.804326-22.004227-122.795624-19.195176 6.688215 16.988066 30.096967 69.691198 78.018026 96.711586a5.016161 5.016161 0 0 1-2.474639 9.396942zM731.15565 821.581178a5.116484 5.116484 0 0 1-3.544754-1.471407l-49.325585-49.359025a4.98272 4.98272 0 0 1 0-7.089508 5.049602 5.049602 0 0 1 7.089508 0l49.359025 49.359025a5.049602 5.049602 0 0 1 0 7.089508 5.116484 5.116484 0 0 1-3.578194 1.471407zM788.440209 764.363501a4.915838 4.915838 0 0 1-3.544753-1.471408l-49.359026-49.325584a5.016161 5.016161 0 0 1 7.122949-7.089508L791.784317 755.769145a4.98272 4.98272 0 0 1 0 7.089507 4.915838 4.915838 0 0 1-3.344108 1.504849zM845.557564 707.179264A5.116484 5.116484 0 0 1 841.945928 705.607533l-49.325584-49.325584a5.016161 5.016161 0 1 1 7.089507-7.122949l49.325585 49.359026a5.016161 5.016161 0 0 1-3.544754 8.560915zM220.945182 821.581178a4.98272 4.98272 0 0 1-3.544754-1.471407l-49.359026-49.359025a5.016161 5.016161 0 0 1 7.089508-7.089508l49.359026 49.359025a5.049602 5.049602 0 0 1 0 7.089508 5.116484 5.116484 0 0 1-3.544754 1.471407zM278.129418 764.363501a4.915838 4.915838 0 0 1-3.544753-1.471408l-49.325585-49.325584a5.016161 5.016161 0 0 1 7.089508-7.089508L281.674172 755.769145a4.98272 4.98272 0 0 1 0 7.089507 4.915838 4.915838 0 0 1-3.544754 1.504849zM335.313655 707.179264a5.116484 5.116484 0 0 1-3.544754-1.471407l-49.325584-49.325585a5.016161 5.016161 0 0 1 7.089508-7.122949l49.359025 49.359026a5.049602 5.049602 0 0 1 0 7.089508 5.116484 5.116484 0 0 1-3.578195 1.471407z" fill="#1A3A66" p-id="100449"></path></svg>