<svg width="24" height="24" viewBox="0 0 24 24" fill="none" xmlns="http://www.w3.org/2000/svg">
  <path d="M19.14,12.94C19.18,12.64 19.2,12.33 19.2,12C19.2,11.68 19.18,11.36 19.13,11.06L21.16,9.48C21.34,9.34 21.39,9.07 21.28,8.87L19.28,5.33C19.17,5.13 18.9,5.07 18.7,5.17L16.35,6.27C15.8,5.85 15.2,5.5 14.56,5.22L14.24,2.81C14.2,2.57 14,2.4 13.75,2.4H9.75C9.5,2.4 9.3,2.57 9.26,2.81L8.94,5.22C8.3,5.5 7.7,5.85 7.15,6.27L4.8,5.17C4.6,5.07 4.33,5.13 4.22,5.33L2.22,8.87C2.11,9.07 2.16,9.34 2.34,9.48L4.37,11.06C4.32,11.36 4.3,11.68 4.3,12C4.3,12.33 4.32,12.64 4.37,12.94L2.34,14.52C2.16,14.66 2.11,14.93 2.22,15.13L4.22,18.67C4.33,18.87 4.6,18.93 4.8,18.83L7.15,17.73C7.7,18.15 8.3,18.5 8.94,18.78L9.26,21.19C9.3,21.43 9.5,21.6 9.75,21.6H13.75C14,21.6 14.2,21.43 14.24,21.19L14.56,18.78C15.2,18.5 15.8,18.15 16.35,17.73L18.7,18.83C18.9,18.93 19.17,18.87 19.28,18.67L21.28,15.13C21.39,14.93 21.34,14.66 21.16,14.52L19.14,12.94ZM11.75,15.5C9.68,15.5 8,13.82 8,11.75C8,9.68 9.68,8 11.75,8C13.82,8 15.5,9.68 15.5,11.75C15.5,13.82 13.82,15.5 11.75,15.5Z" fill="currentColor"/>
</svg>