<?xml version="1.0" standalone="no"?><!DOCTYPE svg PUBLIC "-//W3C//DTD SVG 1.1//EN" "http://www.w3.org/Graphics/SVG/1.1/DTD/svg11.dtd"><svg t="1758786609404" class="icon" viewBox="0 0 1024 1024" version="1.1" xmlns="http://www.w3.org/2000/svg" p-id="100158" xmlns:xlink="http://www.w3.org/1999/xlink" width="128" height="128"><path d="M915.2 179.2h-160c-19.2 0-38.4 19.2-38.4 38.4s19.2 38.4 38.4 38.4h121.6v627.2H153.6V256h172.8c19.2 0 38.4-19.2 38.4-38.4s-12.8-38.4-38.4-38.4H115.2c-19.2 0-38.4 12.8-38.4 38.4v704c0 19.2 19.2 38.4 38.4 38.4h800c19.2 0 38.4-19.2 38.4-38.4v-704c0-25.6-19.2-38.4-38.4-38.4z" p-id="100159" fill="#515151"></path><path d="M332.8 595.2c6.4 6.4 12.8 6.4 19.2 6.4 12.8 0 25.6-6.4 32-19.2l262.4-473.6c19.2-19.2 6.4-44.8-6.4-51.2-19.2-12.8-44.8-6.4-57.6 12.8L320 544c-6.4 19.2 0 44.8 12.8 51.2zM819.2 518.4c0-19.2-19.2-38.4-38.4-38.4H563.2c-19.2 0-38.4 19.2-38.4 38.4s19.2 38.4 38.4 38.4h217.6c19.2 0 38.4-12.8 38.4-38.4zM294.4 697.6c-19.2 0-38.4 19.2-38.4 38.4s19.2 38.4 38.4 38.4h441.6c19.2 0 38.4-19.2 38.4-38.4s-19.2-38.4-38.4-38.4H294.4z" p-id="100160" fill="#515151"></path></svg>