<?xml version="1.0" standalone="no"?><!DOCTYPE svg PUBLIC "-//W3C//DTD SVG 1.1//EN" "http://www.w3.org/Graphics/SVG/1.1/DTD/svg11.dtd"><svg t="1757583749158" class="icon" viewBox="0 0 1024 1024" version="1.1" xmlns="http://www.w3.org/2000/svg" p-id="87761" xmlns:xlink="http://www.w3.org/1999/xlink" width="200" height="200"><path d="M929.855 349.779c0.004-54.939 4.446-104.525-26.533-129.008-32.873-25.98-100.978-38.084-145.477-52.152-97.279-31.105-194.589-62.219-291.867-93.324-37.593-11.892-113.508-47.778-148.222-21.044-28.128 21.663-19.103 119.938-18.299 171.095-65.528-0.345-158.476-11.86-187.563 25.618-25.238 32.52-15.558 114.141-15.554 170.18l0 354.084c-0.002 39.34-7.386 127.373 3.66 156.455 22.444 59.092 89.934 45.754 168.35 45.748l452.896 0c55.945 0.004 152.138 9.951 183.905-14.641 26.513-20.521 24.709-58.357 24.703-106.131L929.854 349.779zM860.32 900.576c-14.154 19.086-44.246 16.473-77.771 16.471L279.33 917.047c-42.463 0.002-97.002 7.42-114.368-18.301-14.984-22.195-7.321-105.66-7.319-142.73L157.643 423.889c-0.003-39.869-8.913-107.653 13.724-126.262 7.787-6.402 15.866-6.648 26.534-10.979l491.325 0c45.471-0.003 149.832-9.505 169.266 14.638 16.035 19.923 10.982 66.103 10.98 101.56l0 420.875C869.471 851.953 872.355 884.348 860.32 900.576zM555.643 414.74c-18.216 5.782-29.069 17.753-42.087 28.364-30.313-23.613-45.776-34.909-102.474-33.853-8.844 2.135-17.69 4.27-26.534 6.403-23.421 9.392-43.964 26.461-57.642 45.748-75.387 106.305 20.371 233.711 72.281 298.272 18.73 23.293 76.794 84.506 122.603 75.941 36.104-6.752 62.106-33.223 84.175-54.898 55.618-54.623 105.26-122.846 120.773-216.842 4.429-26.838-4.078-53.347-10.979-70.449C693.993 439.487 637.932 388.621 555.643 414.74zM668.182 581.26c-16.885 62.129-54.434 110.238-94.239 150.053-14.297 14.297-32.103 34.482-54.897 39.342-27.888 5.947-65.82-36.941-78.686-50.324-36.242-37.697-117.291-141.391-72.28-215.926 13.647-22.598 29.9-28.243 55.812-39.342 35.845-0.128 54.835 2.752 69.536 22.874 6.7 9.169 9.217 17.741 20.129 22.874 21.755-10.693 23.304-38.296 51.236-44.832C635.947 449.329 686.257 514.754 668.182 581.26z" p-id="87762" fill="#515151"></path></svg>