<?xml version="1.0" standalone="no"?><!DOCTYPE svg PUBLIC "-//W3C//DTD SVG 1.1//EN" "http://www.w3.org/Graphics/SVG/1.1/DTD/svg11.dtd"><svg t="1758525003170" class="icon" viewBox="0 0 1024 1024" version="1.1" xmlns="http://www.w3.org/2000/svg" p-id="57052" xmlns:xlink="http://www.w3.org/1999/xlink" width="128" height="128"><path d="M970.474667 304.981333c-2.069333-4.864-10.005333-21.077333-12.629334-23.850666a156.48 156.48 0 0 0-131.584-71.978667c-86.272 0-156.437333 70.186667-156.437333 156.437333s70.165333 156.437333 156.437333 156.437334c64.192 0 119.466667-38.890667 143.552-94.336 5.184 27.52 7.765333 55.658667 7.765334 84.309333 0 250.197333-203.52 453.738667-453.717334 453.738667S70.144 762.197333 70.144 512c0-250.197333 203.541333-453.738667 453.738667-453.738667 70.421333 0 137.877333 15.68 200.490666 46.592a19.264 19.264 0 0 0 17.045334-34.517333A487.232 487.232 0 0 0 523.882667 19.776C252.458667 19.797333 31.658667 240.597333 31.658667 512c0 271.424 220.8 492.202667 492.202666 492.202667 271.424 0 492.202667-220.778667 492.202667-492.202667a493.525333 493.525333 0 0 0-45.589333-207.018667z m-144.213334 172.629334c-61.781333 0-112.064-50.261333-112.064-112.021334s50.261333-112 112.064-112a112.064 112.064 0 0 1 98.154667 58.112c1.770667 3.477333 3.456 6.997333 5.12 10.517334 5.781333 13.76 8.768 28.48 8.746667 43.392a112.128 112.128 0 0 1-112.021334 112z" fill="#515151" p-id="57053"></path><path d="M441.493333 209.152c-86.250667 0-156.437333 70.186667-156.437333 156.437333s70.186667 156.437333 156.437333 156.437334c86.293333 0 156.458667-70.186667 156.458667-156.437334s-70.186667-156.437333-156.458667-156.437333z m0 274.410667c-65.045333 0-117.952-52.928-117.952-117.973334s52.906667-117.952 117.952-117.952 117.973333 52.906667 117.973334 117.952a118.08 118.08 0 0 1-117.973334 117.973334z" fill="#515151" p-id="57054"></path><path d="M387.861333 293.866667a19.221333 19.221333 0 1 0 38.464 0.042666v-0.021333a19.242667 19.242667 0 0 0-38.464-0.021333zM778.218667 291.178667a19.242667 19.242667 0 1 0 38.506666 0 19.242667 19.242667 0 0 0-38.506666 0zM714.368 716.416a140.074667 140.074667 0 0 0-43.925333-6.997333c-49.536 0-96.746667 27.477333-123.264 71.701333a19.2 19.2 0 1 0 33.002666 19.776h0.021334c19.562667-32.682667 54.186667-53.013333 90.24-53.013333 10.922667 0 21.653333 1.728 31.914666 5.077333a19.242667 19.242667 0 0 0 12.010667-36.544zM773.098667 122.453333a19.2 19.2 0 1 0 38.464 0 19.2 19.2 0 1 0-38.464 0z" fill="#515151" p-id="57055"></path><path d="M964.074667 304.981333c-2.090667-4.864-10.005333-21.077333-12.650667-23.850666a156.48 156.48 0 0 0-131.584-71.978667c-86.250667 0-156.416 70.186667-156.416 156.437333s70.165333 156.437333 156.416 156.437334a156.650667 156.650667 0 0 0 143.552-94.336c5.162667 27.52 7.765333 55.658667 7.765333 84.309333 0 250.197333-203.541333 453.738667-453.738666 453.738667S63.722667 762.197333 63.722667 512c0-250.197333 203.541333-453.738667 453.738666-453.738667 70.442667 0 137.877333 15.68 200.533334 46.592a19.242667 19.242667 0 1 0 17.024-34.517333A487.381333 487.381333 0 0 0 517.461333 19.776C246.037333 19.797333 25.258667 240.597333 25.258667 512c0 271.424 220.8 492.202667 492.202666 492.202667 271.445333 0 492.202667-220.778667 492.202667-492.202667 0-71.488-15.744-142.592-45.589333-207.018667z m-144.213334 172.629334c-61.781333 0-112.042667-50.261333-112.042666-112.021334s50.261333-112 112.042666-112a112.064 112.064 0 0 1 98.154667 58.112c1.792 3.477333 3.456 6.997333 5.12 10.517334 5.781333 13.76 8.768 28.48 8.746667 43.392a112.128 112.128 0 0 1-112.021334 112z" fill="#515151" p-id="57056"></path></svg>