<?xml version="1.0" standalone="no"?><!DOCTYPE svg PUBLIC "-//W3C//DTD SVG 1.1//EN" "http://www.w3.org/Graphics/SVG/1.1/DTD/svg11.dtd"><svg t="1759205427148" class="icon" viewBox="0 0 1024 1024" version="1.1" xmlns="http://www.w3.org/2000/svg" p-id="169907" xmlns:xlink="http://www.w3.org/1999/xlink" width="128" height="128"><path d="M399.5 371.375c0-36.5625-22.5-67.5-56.25-78.75V146.375c0-16.875-11.25-28.125-28.125-28.125s-28.125 11.25-28.125 28.125v146.25c-33.75 11.25-56.25 42.1875-56.25 78.75s22.5 67.5 56.25 78.75v120.9375c-33.75 11.25-56.25 42.1875-56.25 78.75s22.5 67.5 56.25 78.75V877.625c0 16.875 11.25 28.125 28.125 28.125s28.125-11.25 28.125-28.125V731.375c33.75-11.25 56.25-42.1875 56.25-78.75s-22.5-67.5-56.25-78.75V452.9375c33.75-14.0625 56.25-45 56.25-81.5625z m-84.375 309.375c-16.875 0-28.125-11.25-28.125-28.125s11.25-28.125 28.125-28.125 28.125 11.25 28.125 28.125-11.25 28.125-28.125 28.125z m0-281.25c-16.875 0-28.125-11.25-28.125-28.125s11.25-28.125 28.125-28.125 28.125 11.25 28.125 28.125-11.25 28.125-28.125 28.125z m393.75 281.25H483.875c-14.0625 0-28.125 11.25-28.125 28.125s11.25 28.125 28.125 28.125h225c14.0625 0 28.125-11.25 28.125-28.125s-11.25-28.125-28.125-28.125z m56.25-393.75H483.875c-14.0625 0-28.125 11.25-28.125 28.125s11.25 28.125 28.125 28.125h281.25c14.0625 0 28.125-11.25 28.125-28.125s-11.25-28.125-28.125-28.125z m-56.25 168.75c14.0625 0 28.125-11.25 28.125-28.125s-11.25-28.125-28.125-28.125H483.875c-14.0625 0-28.125 11.25-28.125 28.125s11.25 28.125 28.125 28.125h225z m56.25 112.5H483.875c-14.0625 0-28.125 11.25-28.125 28.125s11.25 28.125 28.125 28.125h281.25c14.0625 0 28.125-11.25 28.125-28.125s-11.25-28.125-28.125-28.125z" fill="#515151" p-id="169908"></path></svg>