<?xml version="1.0" standalone="no"?><!DOCTYPE svg PUBLIC "-//W3C//DTD SVG 1.1//EN" "http://www.w3.org/Graphics/SVG/1.1/DTD/svg11.dtd"><svg t="1757656254029" class="icon" viewBox="0 0 1024 1024" version="1.1" xmlns="http://www.w3.org/2000/svg" p-id="105027" xmlns:xlink="http://www.w3.org/1999/xlink" width="200" height="200"><path d="M512 903.104c216 0 391.104-175.104 391.104-391.104S728 120.896 512 120.896 120.896 296 120.896 512 296 903.104 512 903.104z m0 64C260.64 967.104 56.896 763.36 56.896 512S260.64 56.896 512 56.896 967.104 260.64 967.104 512 763.36 967.104 512 967.104z" p-id="105028" fill="#515151"></path><path d="M568.896 512a56.896 56.896 0 1 1-113.792 0 56.896 56.896 0 0 1 113.792 0zM341.344 512a56.896 56.896 0 1 1-113.792 0 56.896 56.896 0 0 1 113.792 0zM796.448 512a56.896 56.896 0 1 1-113.792 0 56.896 56.896 0 0 1 113.792 0z" p-id="105029" fill="#515151"></path></svg>