<?xml version="1.0" standalone="no"?><!DOCTYPE svg PUBLIC "-//W3C//DTD SVG 1.1//EN" "http://www.w3.org/Graphics/SVG/1.1/DTD/svg11.dtd"><svg t="1757582410207" class="icon" viewBox="0 0 1024 1024" version="1.1" xmlns="http://www.w3.org/2000/svg" p-id="71522" xmlns:xlink="http://www.w3.org/1999/xlink" width="200" height="200"><path d="M750.976 139.04L768 160l17.024-20.992a116.512 116.512 0 1 1 174.72 153.92l-170.24 178.016a29.728 29.728 0 0 1-42.976 0L576.32 292.768a116.416 116.416 0 1 1 174.624-153.728z m-257.568 22.08l-6.656-6.752a88.448 88.448 0 0 0-142.4 22.784 88.608 88.608 0 0 0-120.256 40.576 83.84 83.84 0 0 0-97.12 133.088l13.888 14.784a86.4 86.4 0 0 0-21.76 134.4l165.088 177.92c-37.344 8.448-85.632 28.8-115.456 77.76-14.336 23.552-9.792 49.088 3.616 66.816 12.608 16.704 33.056 27.2 54.816 28.16 100.896 4.352 222.848 41.216 326.016 90.88 72.48 34.848 165.6 21.504 217.088-46.592l61.44-81.28a160 160 0 0 0 25.504-142.816l-42.144-139.296a96.288 96.288 0 0 1-63.584 10.88l0.224 0.672 44.256 146.24a96 96 0 0 1-15.328 85.76l-61.44 81.248c-30.208 39.936-88.64 51.36-138.24 27.488-108.32-52.096-238.912-92.288-351.04-97.12a10.656 10.656 0 0 1-4.352-1.152c17.536-26.144 45.6-39.168 73.152-45.312a198.464 198.464 0 0 1 50.56-4.352h0.064a32 32 0 0 0 26.112-53.664L166.08 456.448a22.304 22.304 0 0 1 27.84-34.272l134.752 143.744a32 32 0 0 0 46.816-43.712l-129.856-139.68a87.04 87.04 0 0 0-9.152-8.544L173.664 307.04a19.84 19.84 0 0 1 28.48-27.584l191.232 191.2a32 32 0 0 0 45.248-45.28l-152-152a24.576 24.576 0 1 1 34.72-34.72l34.688 34.688c1.632 1.92 3.36 3.808 5.184 5.632l128.16 127.712 0.544 0.544 31.424 31.424a32 32 0 0 0 45.248-45.28L403.84 230.624a24.448 24.448 0 0 1 37.28-31.424l50.88 51.84a177.408 177.408 0 0 1 1.44-89.92z m24.864 542.24c36.544-7.296 66.816-6.72 92.192 1.184 24.896 7.776 47.52 23.392 68 50.656a32 32 0 1 0 51.168-38.432c-27.584-36.736-60.96-61.12-100.064-73.312-38.624-12.064-80.384-11.52-123.84-2.88a32 32 0 1 0 12.544 62.784z" p-id="71523" fill="#515151"></path></svg>