<?xml version="1.0" standalone="no"?><!DOCTYPE svg PUBLIC "-//W3C//DTD SVG 1.1//EN" "http://www.w3.org/Graphics/SVG/1.1/DTD/svg11.dtd"><svg t="1758374239640" class="icon" viewBox="0 0 1024 1024" version="1.1" xmlns="http://www.w3.org/2000/svg" p-id="28557" xmlns:xlink="http://www.w3.org/1999/xlink" width="128" height="128"><path d="M976.568 296.664c-2.138-5.068-10.41-21.942-13.152-24.818-28.984-44.988-79.486-74.866-136.864-74.866-89.732 0-162.732 73-162.732 162.732 0 89.73 73 162.73 162.732 162.73 66.794 0 124.292-40.462 149.336-98.15 5.354 28.624 8.084 57.894 8.084 87.708 0 260.248-211.724 471.968-471.97 471.968S40.03 772.248 40.03 512 251.752 40.03 512 40.03c73.236 0 143.414 16.308 208.588 48.47 9.906 4.892 21.914 0.824 26.804-9.09 4.892-9.914 0.822-21.914-9.092-26.806C667.572 17.698 591.434 0 512 0 229.68 0 0 229.68 0 512c0 282.316 229.68 512 512 512s512-229.68 512-511.998c0-74.35-16.38-148.31-47.432-215.338z m-150.016 185.748c-67.66 0-122.704-55.044-122.704-122.7s55.044-122.704 122.704-122.704c46.26 0 86.612 25.742 107.516 63.646a477.884 477.884 0 0 1 5.604 11.532 121.972 121.972 0 0 1 9.584 47.526c-0.002 67.66-55.044 122.7-122.704 122.7z" fill="#515151" p-id="28558"></path><path d="M426.326 196.98c-89.732 0-162.732 73-162.732 162.732 0 89.73 73 162.73 162.732 162.73s162.732-73 162.732-162.73c0.002-89.732-73.002-162.732-162.732-162.732z m0 285.432c-67.66 0-122.704-55.044-122.704-122.7s55.044-122.704 122.704-122.704 122.704 55.046 122.704 122.704-55.046 122.7-122.704 122.7z" fill="#515151" p-id="28559"></path><path d="M390.526 285.09m-20.014 0a20.014 20.014 0 1 0 40.028 0 20.014 20.014 0 1 0-40.028 0Z" fill="#515151" p-id="28560"></path><path d="M796.612 282.314m-20.014 0a20.014 20.014 0 1 0 40.028 0 20.014 20.014 0 1 0-40.028 0Z" fill="#515151" p-id="28561"></path><path d="M710.172 724.636a145.99 145.99 0 0 0-45.69-7.282c-51.516 0-100.652 28.588-128.244 74.606-5.682 9.482-2.604 21.776 6.876 27.46a20.008 20.008 0 0 0 27.458-6.878c20.398-34.026 56.38-55.16 93.908-55.16 11.358 0 22.524 1.778 33.19 5.282 10.502 3.456 21.814-2.266 25.264-12.764 3.452-10.5-2.26-21.814-12.762-25.264z" fill="#515151" p-id="28562"></path><path d="M791.274 106.798m-20.014 0a20.014 20.014 0 1 0 40.028 0 20.014 20.014 0 1 0-40.028 0Z" fill="#515151" p-id="28563"></path></svg>