<?xml version="1.0" standalone="no"?><!DOCTYPE svg PUBLIC "-//W3C//DTD SVG 1.1//EN" "http://www.w3.org/Graphics/SVG/1.1/DTD/svg11.dtd"><svg t="1758366322938" class="icon" viewBox="0 0 1024 1024" version="1.1" xmlns="http://www.w3.org/2000/svg" p-id="24071" xmlns:xlink="http://www.w3.org/1999/xlink" width="128" height="128"><path d="M864 480v-64h128v64h-128z m-126.24-237.728l90.496-90.496 45.28 45.248-90.528 90.528-45.248-45.28zM512 800a288 288 0 0 1-288-288 288 288 0 0 1 288-288 288 288 0 0 1 288 288 288 288 0 0 1-288 288z m0-512a224 224 0 1 0 0 448 224 224 0 0 0 0-448z m-32-256h64v128h-64V32zM128.448 202.368l42.592-42.592 85.184 85.184-42.592 42.592-85.184-85.184zM160 480H32v-64h128v64z m480 416h-256v-64h256v64z m-64 96h-128v-64h128v64z" fill="#515151" p-id="24072"></path></svg>