<?xml version="1.0" standalone="no"?><!DOCTYPE svg PUBLIC "-//W3C//DTD SVG 1.1//EN" "http://www.w3.org/Graphics/SVG/1.1/DTD/svg11.dtd"><svg t="1757400553357" class="icon" viewBox="0 0 1024 1024" version="1.1" xmlns="http://www.w3.org/2000/svg" p-id="20936" xmlns:xlink="http://www.w3.org/1999/xlink" width="200" height="200"><path d="M512 62a38.25 38.25 0 1 1 0 76.5A373.52499961 373.52499961 0 1 0 885.52499961 512 38.25 38.25 0 1 1 962 512 450 450 0 1 1 512 62z m231.59999971 191.32499971A37.50000029 37.50000029 0 0 1 797.00000029 200.49999981l65.8749999 65.8749999a50.7999999 50.7999999 0 0 1 0 71.9499999L797.00000029 404.225a37.50000029 37.50000029 0 0 1-53.1500001-53.1l11.14999981-11.1999999h-48.49999981c-131.9000001 0-176.69999971 56.1499998-176.70000058 226.0249998a37.50000029 37.50000029 0 0 1-74.99999971 0c0-209.99999971 76.62499981-301.12499971 251.8250001-301.1249997h48.4999998l-11.475-11.475z" p-id="20937" fill="#515151"></path></svg>