<svg width="200" height="200" viewBox="0 0 200 200" fill="none" xmlns="http://www.w3.org/2000/svg">
<mask id="mask0_4402_10373" style="mask-type:alpha" maskUnits="userSpaceOnUse" x="0" y="0" width="200" height="200">
<rect width="200" height="200" rx="40" fill="#D9D9D9"/>
</mask>
<g mask="url(#mask0_4402_10373)">
<g opacity="0.6">
<path opacity="0.3" fill-rule="evenodd" clip-rule="evenodd" d="M159.059 -20.1489C102.644 -45.2666 36.5484 -19.8949 11.4308 36.5204C-13.6869 92.9356 11.6847 159.031 68.1 184.149C124.515 209.267 190.611 183.895 215.728 127.48C240.846 71.0643 215.474 4.96883 159.059 -20.1489ZM9.78981 35.7898C35.311 -21.5317 102.468 -47.311 159.79 -21.7898C217.111 3.73138 242.891 70.8887 217.369 128.21C191.848 185.532 124.691 211.311 67.3694 185.79C10.0479 160.269 -15.7314 93.1113 9.78981 35.7898ZM155.771 -12.7636C103.434 -36.0656 42.1164 -12.528 18.8144 39.8091C-4.48752 92.1461 19.0501 153.464 71.3871 176.766C123.724 200.068 185.042 176.53 208.344 124.193C231.646 71.8559 208.108 10.5383 155.771 -12.7636ZM13.8916 37.6173C38.404 -17.4386 102.907 -42.1989 157.963 -17.6864C213.019 6.826 237.779 71.3288 213.266 126.385C188.754 181.441 124.251 206.201 69.1953 181.688C14.1395 157.176 -10.6208 92.6731 13.8916 37.6173ZM76.9477 78.6041L85.6638 64.5152L77.5076 60.8839L60.6355 71.3415L49.4537 66.363L66.2601 55.8761L55.736 51.1905L59.3732 45.3226L111.862 68.692L108.225 74.56L96.9113 69.523L92.5862 76.5821L102.584 81.0334L106.525 79.7932L100.693 89.176L76.9477 78.6041ZM106.897 48.5118L81.902 37.3835L79.7066 40.8984L65.9595 34.7778L71.7921 25.395L91.7878 34.2976L92.5416 33.1358L91.4838 29.6699L106.481 36.3469L104.285 39.8618L124.281 48.7644L118.448 58.1473L104.701 52.0267L106.897 48.5118ZM112.337 57.712L108.7 63.5799L66.2089 44.6618L69.8461 38.7939L112.337 57.712ZM128.566 95.596L138.789 79.1833L133.922 77.0162L118.672 98.521L107.425 93.5133L132.501 58.2566L131.516 54.9808L156.642 66.1677L157.34 61.5918L156.465 58.6012L168.962 64.1654L167.89 71.1754L185.255 78.9067L181.618 84.7747L166.884 78.2148L164.6 93.4338L175.223 92.4099L170.144 100.631L163.469 101.284L162.338 109.135L164.246 109.984L168.253 108.774L162.413 117.996L149.916 112.431L151.399 102.373L139.555 103.484L144.7 95.2922L152.501 94.5882L155.636 73.2071L141.232 66.7936L137.953 71.324L152.424 77.7667L139.705 98.1912C138.92 99.3652 137.849 100.176 136.494 100.624C135.158 101.027 133.855 100.946 132.583 100.38L124.559 96.8069L128.566 95.596ZM183.509 76.632L171.012 71.0678L172.287 66.4338L184.784 71.998L183.509 76.632ZM102.55 126.305C102.199 126.244 101.845 126.133 101.371 125.922C99.7894 125.218 99.2979 124.194 100.011 122.593L105.741 109.724L107.441 110.481L101.905 122.915C101.42 124.002 101.629 124.332 102.321 124.64C102.558 124.745 102.844 124.849 103.175 124.902L102.55 126.305ZM59.1218 105.055L61.2517 100.271L66.7078 102.7L67.3767 101.198L61.9206 98.7684L63.8129 94.5182L69.6643 97.1235L70.3684 95.542L62.7379 92.1446L56.6297 105.864L64.7545 109.481L65.4674 107.88L59.1218 105.055ZM66.0794 110.07L67.9771 110.915L72.826 107.792L72.9446 107.845L73.789 113.503L75.7263 114.366L74.5269 107.27L80.2814 103.603L78.4034 102.767L73.8797 105.798L73.7611 105.745L72.9473 100.337L71.0496 99.4924L72.1767 106.271L66.0794 110.07ZM85.0241 118.269C84.354 118.231 83.0096 117.846 82.0212 117.406C78.8583 115.997 77.6512 113.92 79.5435 109.67C81.4358 105.42 83.7871 104.927 86.95 106.335C88.1361 106.863 89.0453 107.481 89.5613 107.972L88.866 109.533C88.2073 108.885 87.4167 108.32 86.3096 107.827C83.9572 106.779 82.7528 107.356 81.3534 110.5C79.9716 113.603 80.3574 114.865 82.7296 115.921C83.7378 116.37 84.8076 116.68 85.7194 116.707L85.0241 118.269ZM96.6746 110.66C100.312 112.28 99.8795 114.953 98.9554 117.029C98.8234 117.326 98.5814 117.763 98.3021 118.23L90.8644 115.464C89.8347 117.777 90.2006 119.242 92.7705 120.387C93.9566 120.915 95.4329 121.217 96.4194 121.182L95.7241 122.744C94.9309 122.77 93.3865 122.461 91.8446 121.775C88.6817 120.366 87.4746 118.289 89.3669 114.039C91.2592 109.789 93.6105 109.296 96.6746 110.66ZM96.0546 112.064C93.6033 110.972 92.4601 112.05 91.4327 114.198L97.2712 116.3C98.0105 114.64 98.3675 113.093 96.0546 112.064ZM107.022 128.439C107.497 128.651 107.85 128.761 108.202 128.822L108.827 127.419C108.495 127.366 108.209 127.262 107.972 127.157C107.28 126.849 107.072 126.519 107.556 125.432L113.092 112.998L111.392 112.241L105.662 125.11C104.949 126.711 105.441 127.735 107.022 128.439ZM121.692 127.15C122.616 125.075 123.048 122.401 119.411 120.782C116.347 119.417 113.995 119.91 112.103 124.16C110.211 128.411 111.418 130.488 114.581 131.896C116.123 132.582 117.667 132.891 118.46 132.865L119.156 131.303C118.169 131.338 116.693 131.036 115.507 130.508C112.937 129.364 112.571 127.898 113.601 125.585L121.038 128.352C121.318 127.884 121.56 127.447 121.692 127.15ZM114.169 124.32C115.196 122.172 116.339 121.093 118.791 122.185C121.104 123.215 120.747 124.761 120.007 126.422L114.169 124.32ZM131.743 126.278C130.439 125.697 128.806 125.373 127.558 126.475L128.235 124.953L126.535 124.196L121.783 134.871L123.483 135.628L126.695 128.412C128.105 126.789 129.543 127.122 130.888 127.721C132.568 128.469 132.501 129.576 131.771 131.217L128.761 137.978L130.481 138.743L133.772 131.35C134.679 129.314 134.531 127.519 131.743 126.278ZM137.279 137.742C136.54 139.403 136.601 139.904 137.906 140.485C138.38 140.696 138.714 140.797 139.125 140.885L138.483 142.328C138.041 142.203 137.687 142.093 137.233 141.89C134.88 140.843 134.286 139.891 135.535 137.084L138.202 131.094L136.621 130.39L137.254 128.967L138.836 129.671L139.962 127.141L141.662 127.898L140.536 130.428L143.185 131.607L142.551 133.031L139.902 131.851L137.279 137.742ZM47.8502 93.3448C48.1535 93.4798 48.2899 93.8351 48.1548 94.1384C48.0391 94.3983 47.7615 94.5357 47.4936 94.4846L47.3612 94.443L33.3558 88.2074C33.0525 88.0724 32.9161 87.7171 33.0512 87.4138C33.1669 87.1538 33.4445 87.0165 33.7124 87.0676L33.8448 87.1092L47.8502 93.3448ZM162.374 144.991C162.509 144.688 162.373 144.332 162.069 144.197L148.064 137.962L147.932 137.92C147.664 137.869 147.386 138.006 147.27 138.266C147.135 138.57 147.272 138.925 147.575 139.06L161.58 145.296L161.713 145.337C161.981 145.388 162.258 145.251 162.374 144.991ZM48.0497 115.123C48.0111 113.582 46.2009 112.776 45.0298 113.779L44.6009 114.146C44.1289 114.55 43.4843 114.687 42.8888 114.51L42.3476 114.349C40.8699 113.909 39.544 115.382 40.1357 116.805L40.3523 117.327C40.5907 117.901 40.5218 118.556 40.1694 119.068L39.849 119.533C38.9744 120.802 39.9651 122.518 41.5019 122.395L42.0647 122.35C42.684 122.301 43.2861 122.569 43.6637 123.062L44.0069 123.511C44.944 124.735 46.8822 124.323 47.2404 122.823L47.3716 122.274C47.5159 121.67 47.9569 121.18 48.5428 120.973L49.0752 120.786C50.529 120.273 50.7362 118.302 49.4207 117.498L48.939 117.204C48.4089 116.88 48.0794 116.309 48.0638 115.688L48.0497 115.123ZM132.819 152.867C133.99 151.864 135.8 152.67 135.839 154.211L135.853 154.776C135.868 155.397 136.198 155.967 136.728 156.291L137.21 156.586C138.525 157.39 138.318 159.361 136.864 159.874L136.332 160.061C135.746 160.268 135.305 160.758 135.16 161.362L135.029 161.911C134.671 163.411 132.733 163.823 131.796 162.599L131.453 162.15C131.075 161.657 130.473 161.389 129.854 161.438L129.291 161.483C127.754 161.606 126.763 159.89 127.638 158.62L127.958 158.156C128.311 157.644 128.38 156.988 128.141 156.415L127.925 155.893C127.333 154.47 128.659 152.997 130.137 153.437L130.678 153.598C131.273 153.775 131.918 153.638 132.39 153.234L132.819 152.867ZM110.114 148.653C111.285 147.65 113.096 148.456 113.134 149.998L113.163 151.163C113.179 151.784 113.508 152.355 114.038 152.679L115.033 153.287C116.348 154.091 116.141 156.061 114.687 156.574L113.588 156.962C113.002 157.169 112.561 157.659 112.417 158.263L112.146 159.397C111.788 160.896 109.85 161.308 108.913 160.084L108.204 159.158C107.827 158.665 107.224 158.397 106.605 158.446L105.443 158.539C103.906 158.662 102.916 156.946 103.79 155.676L104.452 154.716C104.804 154.205 104.873 153.549 104.635 152.976L104.187 151.899C103.596 150.476 104.922 149.003 106.399 149.443L107.517 149.775C108.112 149.952 108.757 149.815 109.229 149.411L110.114 148.653ZM86.7318 138.245C87.903 137.242 89.7131 138.048 89.7517 139.589L89.8185 142.257C89.834 142.878 90.1636 143.449 90.6937 143.773L92.9704 145.164C94.2858 145.968 94.0787 147.939 92.6249 148.452L90.1085 149.34C89.5227 149.547 89.0817 150.036 88.9373 150.641L88.3174 153.236C87.9592 154.735 86.0211 155.147 85.0839 153.923L83.462 151.804C83.0844 151.311 82.4823 151.043 81.863 151.093L79.2031 151.305C77.6663 151.428 76.6755 149.712 77.5502 148.442L79.0641 146.245C79.4166 145.733 79.4855 145.078 79.2471 144.504L78.2231 142.04C77.6315 140.616 78.9574 139.144 80.4351 139.583L82.9927 140.344C83.5881 140.521 84.2328 140.384 84.7047 139.98L86.7318 138.245ZM66.3642 129.174C66.3257 127.633 64.5155 126.827 63.3443 127.83L62.4588 128.588C61.9869 128.992 61.3422 129.129 60.7467 128.952L59.6294 128.62C58.1517 128.18 56.8259 129.652 57.4175 131.076L57.8648 132.153C58.1032 132.726 58.0343 133.382 57.6818 133.893L57.0205 134.853C56.1458 136.123 57.1366 137.839 58.6733 137.716L59.8353 137.623C60.4546 137.574 61.0567 137.842 61.4343 138.335L62.1429 139.261C63.08 140.485 65.0182 140.073 65.3764 138.573L65.6472 137.44C65.7915 136.835 66.2325 136.346 66.8184 136.139L67.9176 135.751C69.3715 135.238 69.5786 133.268 68.2632 132.463L67.2686 131.856C66.7385 131.532 66.409 130.961 66.3934 130.34L66.3642 129.174ZM147.586 9.68604C147.547 8.14483 145.737 7.33889 144.566 8.34149L142.539 10.0768C142.067 10.4808 141.422 10.6178 140.827 10.4407L138.269 9.6799C136.791 9.24034 135.465 10.7129 136.057 12.1365L137.081 14.6006C137.319 15.1743 137.251 15.8297 136.898 16.3413L135.384 18.5386C134.509 19.8082 135.5 21.5242 137.037 21.4015L139.697 21.1891C140.316 21.1396 140.918 21.4077 141.296 21.901L142.918 24.0198C143.855 25.244 145.793 24.832 146.151 23.3325L146.771 20.7372C146.916 20.1329 147.357 19.6431 147.942 19.4364L150.459 18.5486C151.913 18.0356 152.12 16.065 150.804 15.261L148.528 13.8694C147.997 13.5454 147.668 12.9746 147.652 12.3536L147.586 9.68604ZM168.782 25.0218C168.743 23.4806 166.933 22.6747 165.762 23.6773L164.877 24.4353C164.405 24.8394 163.76 24.9764 163.164 24.7993L162.047 24.4669C160.57 24.0273 159.244 25.4999 159.835 26.9235L160.283 27.9999C160.521 28.5736 160.452 29.2291 160.1 29.7407L159.438 30.7006C158.564 31.9701 159.554 33.6861 161.091 33.5634L162.253 33.4706C162.872 33.4212 163.474 33.6892 163.852 34.1826L164.561 35.1082C165.498 36.3323 167.436 35.9204 167.794 34.4209L168.065 33.2871C168.209 32.6828 168.65 32.193 169.236 31.9863L170.335 31.5985C171.789 31.0855 171.996 29.1149 170.681 28.3109L169.686 27.703C169.156 27.379 168.827 26.8082 168.811 26.1871L168.782 25.0218ZM118.994 2.85207C120.165 1.84948 121.975 2.65542 122.013 4.19662L122.043 5.36194C122.058 5.983 122.388 6.55377 122.918 6.87777L123.912 7.48569C125.228 8.28971 125.021 10.2603 123.567 10.7733L122.468 11.1611C121.882 11.3678 121.441 11.8576 121.296 12.4619L121.026 13.5957C120.667 15.0952 118.729 15.5072 117.792 14.283L117.084 13.3574C116.706 12.864 116.104 12.596 115.485 12.6454L114.323 12.7382C112.786 12.861 111.795 11.1449 112.67 9.8754L113.331 8.91549C113.684 8.4039 113.752 7.74844 113.514 7.17475L113.067 6.09832C112.475 4.67466 113.801 3.20214 115.279 3.6417L116.396 3.97406C116.991 4.15118 117.636 4.01416 118.108 3.61014L118.994 2.85207ZM185.276 43.1801C185.238 41.6389 183.428 40.833 182.256 41.8356L181.828 42.2028C181.356 42.6068 180.711 42.7438 180.115 42.5667L179.574 42.4057C178.097 41.9661 176.771 43.4387 177.362 44.8623L177.579 45.3837C177.817 45.9574 177.748 46.6129 177.396 47.1244L177.076 47.5894C176.201 48.8589 177.192 50.5749 178.729 50.4522L179.291 50.4073C179.911 50.3578 180.513 50.6259 180.89 51.1192L181.234 51.5675C182.171 52.7917 184.109 52.3797 184.467 50.8802L184.598 50.3311C184.743 49.7268 185.184 49.237 185.769 49.0303L186.302 48.8425C187.756 48.3295 187.963 46.3589 186.647 45.5549L186.166 45.2604C185.636 44.9364 185.306 44.3656 185.29 43.7446L185.276 43.1801ZM94.4602 2.74459C95.6313 1.74199 97.4415 2.54793 97.4801 4.08914L97.4942 4.65357C97.5098 5.27464 97.8393 5.8454 98.3694 6.1694L98.8511 6.46386C100.167 7.26787 99.9594 9.2385 98.5056 9.75145L97.9731 9.93931C97.3873 10.146 96.9463 10.6358 96.802 11.2401L96.6708 11.7892C96.3126 13.2887 94.3744 13.7007 93.4373 12.4765L93.0941 12.0282C92.7165 11.5349 92.1144 11.2668 91.4951 11.3163L90.9323 11.3612C89.3955 11.4839 88.4048 9.76792 89.2794 8.49838L89.5998 8.03344C89.9522 7.52185 90.0211 6.86639 89.7827 6.2927L89.5661 5.77132C88.9744 4.34766 90.3003 2.87514 91.778 3.3147L92.3192 3.47568C92.9147 3.65281 93.5593 3.51578 94.0313 3.11177L94.4602 2.74459Z" fill="white"/>
</g>
</g>
</svg>
