<?xml version="1.0" standalone="no"?><!DOCTYPE svg PUBLIC "-//W3C//DTD SVG 1.1//EN" "http://www.w3.org/Graphics/SVG/1.1/DTD/svg11.dtd"><svg t="1757582431694" class="icon" viewBox="0 0 1024 1024" version="1.1" xmlns="http://www.w3.org/2000/svg" p-id="72879" xmlns:xlink="http://www.w3.org/1999/xlink" width="200" height="200"><path d="M512 48c256.256 0 464 207.744 464 464S768.256 976 512 976 48 768.256 48 512 255.744 48 512 48z m0 32C273.408 80 80 273.408 80 512S273.408 944 512 944 944 750.592 944 512 750.592 80 512 80z m242.592 459.008c18.24 12.48 22.88 37.376 10.4 55.584-58.56 85.536-151.616 137.408-252.992 137.408a294.816 294.816 0 0 1-60-6.144c0.48 7.904 0.48 16.32 0 25.28 0 55.68-44.8 100.864-100 100.864-55.232 0-100-45.152-100-100.864l-0.064-143.84v-16.768c0.064-6.016 0.16-10.4 0.448-13.344a40 40 0 0 1 72.64-27.776c44 64.32 112.704 102.592 186.976 102.592 74.24 0 142.976-38.304 187.008-102.592a40 40 0 0 1 55.584-10.4z m-102.592-207.008c22.08 0 40 17.92 40 40v120a40 40 0 0 1-80 0v-120c0-22.08 17.92-40 40-40z m-263.68 40a119.872 119.872 0 0 1 114.4 83.84 40 40 0 0 1-75.264 26.88l-0.992-2.784a39.872 39.872 0 0 0-38.144-27.936 39.872 39.872 0 0 0-37.056 24.832l-1.12 3.104a40 40 0 1 1-76.288-24.128 119.872 119.872 0 0 1 114.432-83.84z" fill="#515151" p-id="72880"></path></svg>