<?xml version="1.0" standalone="no"?><!DOCTYPE svg PUBLIC "-//W3C//DTD SVG 1.1//EN" "http://www.w3.org/Graphics/SVG/1.1/DTD/svg11.dtd"><svg t="1757582714644" class="icon" viewBox="0 0 1024 1024" version="1.1" xmlns="http://www.w3.org/2000/svg" p-id="82584" xmlns:xlink="http://www.w3.org/1999/xlink" width="200" height="200"><path d="M511.970818 0a511.970818 511.970818 0 0 0 0 1023.941635 32.45895 32.45895 0 0 0 3.890978 0 32.45895 32.45895 0 0 0 3.890978 0h444.697852a38.807388 38.807388 0 0 0 27.032059-66.556206l-186.152589-181.032881a38.756191 38.756191 0 1 0-54.064118 55.600031l117.753288 114.425477h-349.164098a32.45895 32.45895 0 0 0-3.890978 0 32.45895 32.45895 0 0 0-3.890978 0 434.048859 434.048859 0 1 1 426.3181-350.648813 38.807388 38.807388 0 1 0 76.181257 14.847154A512.482788 512.482788 0 0 0 511.970818 0z" p-id="82585" fill="#515151"></path><path d="M530.196979 856.578375a40.957665 40.957665 0 0 0 40.650483-40.650483v-105.721974h111.097667a40.650483 40.650483 0 0 0 0-81.300966h-111.097667v-70.447184h108.384222a40.70168 40.70168 0 0 0 0-81.352163h-108.742602a36.503519 36.503519 0 0 0 5.119708-4.454146l134.136355-134.136354a40.650483 40.650483 0 0 0-57.494323-57.494323l-122.309829 122.361025-127.992704-127.992704a40.650483 40.650483 0 0 0-57.033549 57.699111l134.136354 134.136354a40.292103 40.292103 0 0 0 16.280672 9.881037H381.111077a40.70168 40.70168 0 0 0 0 81.352163h108.435419v70.447184H383.978113a40.650483 40.650483 0 0 0 0 81.300966h105.568383v105.721974a40.957665 40.957665 0 0 0 40.650483 40.650483zM522.619811 476.13286l1.126335 0.767957h-3.430204c0.767956 0 1.535912-0.307182 2.303869-0.767957z" p-id="82586" fill="#515151"></path></svg>