<?xml version="1.0" standalone="no"?><!DOCTYPE svg PUBLIC "-//W3C//DTD SVG 1.1//EN" "http://www.w3.org/Graphics/SVG/1.1/DTD/svg11.dtd"><svg t="1759205443038" class="icon" viewBox="0 0 1024 1024" version="1.1" xmlns="http://www.w3.org/2000/svg" p-id="171103" xmlns:xlink="http://www.w3.org/1999/xlink" width="128" height="128"><path d="M914.773333 360.618667L571.050667 167.424a70.826667 70.826667 0 0 0-77.824 0L152.576 358.912l-2.901333 1.706667C130.730667 373.930667 119.466667 395.605333 119.466667 418.645333s11.264 44.714667 30.208 58.026667L493.226667 669.866667c11.776 7.68 25.429333 11.605333 38.912 11.605333s27.136-3.925333 38.912-11.605333l340.821333-191.317334 2.901333-1.877333c18.944-13.312 30.208-34.986667 30.208-58.026667s-11.264-44.714667-30.208-58.026666z m-38.570666 59.562666L536.405333 610.986667l-2.901333 1.706666c-0.853333 0.682667-2.048 0.682667-2.901333 0L188.245333 420.181333c-0.341333-0.341333-0.512-0.853333-0.512-1.536s0.170667-1.194667 0.512-1.536l339.797334-190.805333 2.901333-1.877333c0.853333-0.682667 2.048-0.512 2.901333 0l342.528 192.682666c0.341333 0.341333 0.512 0.853333 0.512 1.536s-0.512 1.194667-0.682666 1.536z" fill="#515151" p-id="171104"></path><path d="M812.714667 578.901333c-18.773333 0-34.133333 15.36-34.133334 34.133334v96.597333l-243.370666 122.709333-249.173334-122.88v-96.426666c0-18.773333-15.36-34.133333-34.133333-34.133334s-34.133333 15.36-34.133333 34.133334v138.752l317.781333 156.672 311.296-156.842667v-138.581333c0-18.773333-15.36-34.133333-34.133333-34.133334z" fill="#515151" p-id="171105"></path></svg>