<?xml version="1.0" standalone="no"?><!DOCTYPE svg PUBLIC "-//W3C//DTD SVG 1.1//EN" "http://www.w3.org/Graphics/SVG/1.1/DTD/svg11.dtd"><svg t="1758374589145" class="icon" viewBox="0 0 1024 1024" version="1.1" xmlns="http://www.w3.org/2000/svg" p-id="32950" xmlns:xlink="http://www.w3.org/1999/xlink" width="128" height="128"><path d="M768 1024H170.666667c-48.355556 0-85.333333-36.977778-85.333334-85.333333V199.111111c0-48.355556 36.977778-85.333333 85.333334-85.333333h597.333333c48.355556 0 85.333333 36.977778 85.333333 85.333333v739.555556c0 48.355556-36.977778 85.333333-85.333333 85.333333zM170.666667 170.666667c-17.066667 0-28.444444 11.377778-28.444445 28.444444v739.555556c0 17.066667 11.377778 28.444444 28.444445 28.444444h597.333333c17.066667 0 28.444444-11.377778 28.444444-28.444444V199.111111c0-17.066667-11.377778-28.444444-28.444444-28.444444H170.666667z" fill="#515151" p-id="32951"></path><path d="M853.333333 941.511111l-56.888889-8.533333 102.4-756.622222c2.844444-14.222222-11.377778-31.288889-31.288888-31.288889L341.333333 79.644444c-8.533333 0-19.911111 0-25.6 5.688889-5.688889 5.688889-11.377778 11.377778-11.377777 17.066667l-8.533334 36.977778-56.888889-11.377778 8.533334-34.133333c2.844444-19.911111 14.222222-39.822222 34.133333-54.044445s42.666667-19.911111 65.422222-17.066666l529.066667 68.266666c51.2 5.688889 85.333333 48.355556 79.644444 96.711111L853.333333 941.511111z" fill="#515151" p-id="32952"></path><path d="M469.333333 682.666667c-5.688889 0-8.533333-2.844444-11.377777-2.844445-2.844444-2.844444-22.755556-17.066667-48.355556-39.822222-34.133333-31.288889-56.888889-56.888889-71.111111-79.644444-5.688889-8.533333-11.377778-19.911111-17.066667-31.288889-5.688889-14.222222-8.533333-25.6-8.533333-39.822223 0-25.6 8.533333-48.355556 25.6-65.422222 17.066667-17.066667 39.822222-28.444444 62.577778-28.444444 25.6 0 51.2 14.222222 68.266666 34.133333 17.066667-22.755556 42.666667-34.133333 68.266667-34.133333 22.755556 0 45.511111 11.377778 62.577778 28.444444 17.066667 17.066667 25.6 42.666667 25.6 65.422222 0 31.288889-14.222222 54.044444-25.6 71.111112-14.222222 22.755556-36.977778 48.355556-71.111111 79.644444-25.6 22.755556-45.511111 39.822222-48.355556 39.822222-2.844444 0-5.688889 2.844444-11.377778 2.844445z m-68.266666-270.222223c-19.911111 0-36.977778 8.533333-48.355556 22.755556-14.222222 14.222222-19.911111 34.133333-19.911111 54.044444 0 11.377778 2.844444 22.755556 5.688889 31.288889 2.844444 8.533333 8.533333 19.911111 14.222222 28.444445 31.288889 48.355556 113.777778 110.933333 116.622222 113.777778 2.844444-2.844444 85.333333-65.422222 116.622223-113.777778 11.377778-17.066667 22.755556-34.133333 22.755555-59.733334 0-19.911111-8.533333-39.822222-19.911111-54.044444-14.222222-14.222222-31.288889-22.755556-48.355556-22.755556-25.6 0-48.355556 14.222222-59.733333 36.977778-2.844444 2.844444-5.688889 5.688889-8.533333 5.688889-2.844444 0-5.688889-2.844444-8.533334-5.688889-14.222222-22.755556-36.977778-36.977778-62.577777-36.977778z m0 0" fill="#515151" p-id="32953"></path><path d="M469.333333 696.888889c-8.533333 0-14.222222-2.844444-19.911111-8.533333-8.533333-5.688889-28.444444-22.755556-48.355555-42.666667-34.133333-31.288889-59.733333-59.733333-73.955556-82.488889-5.688889-11.377778-14.222222-19.911111-17.066667-34.133333-5.688889-14.222222-8.533333-28.444444-8.533333-45.511111 0-28.444444 11.377778-56.888889 28.444445-76.8 19.911111-22.755556 45.511111-34.133333 73.955555-34.133334 25.6 0 51.2 11.377778 68.266667 28.444445 19.911111-17.066667 42.666667-28.444444 68.266666-28.444445 28.444444 0 54.044444 11.377778 73.955556 34.133334 19.911111 19.911111 28.444444 48.355556 28.444444 76.8 0 34.133333-17.066667 59.733333-28.444444 76.8-14.222222 22.755556-39.822222 51.2-73.955556 82.488888-22.755556 19.911111-42.666667 36.977778-48.355555 42.666667-5.688889 8.533333-14.222222 11.377778-22.755556 11.377778zM401.066667 426.666667c-14.222222 0-28.444444 5.688889-39.822223 17.066666-11.377778 11.377778-17.066667 28.444444-17.066666 45.511111 0 8.533333 2.844444 17.066667 5.688889 28.444445 2.844444 8.533333 8.533333 17.066667 14.222222 25.6 22.755556 34.133333 73.955556 79.644444 105.244444 105.244444 31.288889-25.6 82.488889-71.111111 105.244445-105.244444 8.533333-14.222222 19.911111-31.288889 19.911111-54.044445 0-17.066667-5.688889-31.288889-17.066667-45.511111-8.533333-11.377778-22.755556-17.066667-36.977778-17.066666-19.911111 0-36.977778 11.377778-48.355555 31.288889-8.533333 14.222222-34.133333 14.222222-42.666667 0-8.533333-19.911111-28.444444-31.288889-48.355555-31.288889z" fill="#515151" p-id="32954"></path></svg>