<?xml version="1.0" standalone="no"?><!DOCTYPE svg PUBLIC "-//W3C//DTD SVG 1.1//EN" "http://www.w3.org/Graphics/SVG/1.1/DTD/svg11.dtd"><svg t="1757582459092" class="icon" viewBox="0 0 1024 1024" version="1.1" xmlns="http://www.w3.org/2000/svg" p-id="75795" xmlns:xlink="http://www.w3.org/1999/xlink" width="200" height="200"><path d="M920.5 333.4c-22.6-53.4-55-101.5-96.2-142.7s-89.2-73.6-142.7-96.2c-55.4-23.4-114.1-35.3-174.8-35.3-60.6 0-119.4 11.9-174.8 35.3-53.4 22.6-101.5 54.9-142.7 96.2-41.2 41.2-73.6 89.2-96.2 142.7C69.9 388.8 58 447.6 58 508.2S69.9 627.6 93.3 683c22.6 53.4 54.9 101.5 96.2 142.7 41.2 41.2 89.2 73.6 142.7 96.2 55.4 23.4 114.1 35.3 174.8 35.3 60.6 0 119.4-11.9 174.8-35.3 53.4-22.6 101.5-55 142.7-96.2s73.6-89.2 96.2-142.7c23.4-55.4 35.3-114.1 35.3-174.8s-12.1-119.4-35.5-174.8zM506.9 892.3c-211.8 0-384.1-172.3-384.1-384.1s172.3-384.1 384.1-384.1S891 296.4 891 508.2 718.7 892.3 506.9 892.3z" p-id="75796" fill="#515151"></path><path d="M398 658.8c12 0 22.9-6.8 28.3-17.6 14.6-29.3 44.8-49.4 79.7-49.4s65.2 20.1 79.7 49.4c5.3 10.7 16.3 17.6 28.3 17.6 23.3 0 38.6-24.5 28.3-45.4-24.8-50.2-76.5-84.6-136.3-84.6s-111.5 34.5-136.3 84.6c-10.4 20.9 5 45.4 28.3 45.4zM426.5 327H233.6c-16.3 0-29.5 13.2-29.5 29.5s13.2 29.5 29.5 29.5h59.7L168.8 601.7c-8.2 14.1-3.3 32.2 10.8 40.3 14.1 8.2 32.2 3.3 40.3-10.8l141.5-245.1h65c16.3 0 29.5-13.2 29.5-29.5 0.1-16.3-13.1-29.6-29.4-29.6zM587.3 327h192.9c16.3 0 29.5 13.2 29.5 29.5S796.5 386 780.2 386h-59.7L845 601.7c8.2 14.1 3.3 32.2-10.8 40.3-14.1 8.2-32.2 3.3-40.3-10.8L652.4 386.1h-65c-16.3 0-29.5-13.2-29.5-29.5-0.1-16.3 13.1-29.6 29.4-29.6z" p-id="75797" fill="#515151"></path></svg>