<?xml version="1.0" standalone="no"?><!DOCTYPE svg PUBLIC "-//W3C//DTD SVG 1.1//EN" "http://www.w3.org/Graphics/SVG/1.1/DTD/svg11.dtd"><svg t="1757987433580" class="icon" viewBox="0 0 1380 1024" version="1.1" xmlns="http://www.w3.org/2000/svg" p-id="3109" width="172.5" height="128" xmlns:xlink="http://www.w3.org/1999/xlink"><path d="M22.26087 874.852174a667.826087 149.147826 0 1 0 1335.652173 0 667.826087 149.147826 0 1 0-1335.652173 0Z" fill="#F5F5F5" p-id="3110"></path><path d="M754.643478 340.591304V957.217391L164.730435 779.130435V186.991304z" fill="#FFFFFF" p-id="3111"></path><path d="M754.643478 968.347826h-2.226087l-589.913043-178.086956c-6.678261-2.226087-8.904348-6.678261-8.904348-11.130435V186.991304c0-4.452174 2.226087-6.678261 4.452174-8.904347 2.226087-2.226087 6.678261-2.226087 8.904348-2.226087L756.869565 329.46087c4.452174 2.226087 8.904348 6.678261 8.904348 11.130434V957.217391c0 4.452174-2.226087 6.678261-4.452174 8.904348-2.226087 2.226087-4.452174 2.226087-6.678261 2.226087z m-578.782608-198.121739l567.652173 171.408696V349.495652L175.86087 200.347826v569.878261z" fill="#979797" p-id="3112"></path><path d="M754.643478 954.991304l451.895652-195.895652 4.452174-585.460869-456.347826 166.956521z" fill="#E0E0E0" p-id="3113"></path><path d="M754.643478 966.121739c-2.226087 0-4.452174 0-6.678261-2.226087-2.226087-2.226087-4.452174-4.452174-4.452174-8.904348V340.591304c0-4.452174 2.226087-8.904348 6.678261-11.130434l456.347826-166.956522c4.452174-2.226087 6.678261 0 11.130435 2.226087 2.226087 2.226087 4.452174 4.452174 4.452174 8.904348l-4.452174 585.460869c0 4.452174-2.226087 8.904348-6.678261 11.130435l-451.895652 195.895652h-4.452174z m11.130435-618.852174v589.913044l429.634783-186.991305 4.452174-563.2-434.086957 160.278261z" fill="#979797" p-id="3114"></path><path d="M164.730435 186.991304L612.173913 22.26087l-4.452174 282.713043z" fill="#B8B8B8" p-id="3115"></path><path d="M607.721739 313.878261h-2.226087L162.504348 195.895652c-4.452174-2.226087-6.678261-4.452174-6.678261-8.904348s2.226087-6.678261 6.678261-8.904347L609.947826 13.356522h8.904348c2.226087 2.226087 4.452174 4.452174 4.452174 6.678261l-4.452174 282.713043c0 2.226087-2.226087 4.452174-4.452174 6.678261-2.226087 4.452174-4.452174 4.452174-6.678261 4.452174zM193.669565 184.765217l405.147826 106.852174 4.452174-258.226087L193.669565 184.765217z" fill="#979797" p-id="3116"></path><path d="M607.721739 302.747826l153.6 42.295652 451.895652-171.408695L614.4 22.26087z" fill="#EDEFF1" p-id="3117"></path><path d="M761.321739 356.173913h-2.226087l-153.6-42.295652c-4.452174-2.226087-8.904348-6.678261-8.904348-11.130435L603.269565 22.26087c0-4.452174 2.226087-6.678261 4.452174-8.904348 2.226087-2.226087 6.678261-2.226087 8.904348-2.226087l598.817391 151.373913c4.452174 2.226087 8.904348 6.678261 8.904348 11.130435s-2.226087 8.904348-6.678261 11.130434L765.773913 356.173913h-4.452174z m-142.469565-62.330435l142.469565 40.069565 416.278261-158.052173L625.530435 35.617391l-6.678261 258.226087z" fill="#979797" p-id="3118"></path><path d="M752.417391 336.13913l158.052174 267.130435 447.443478-200.347826-144.695652-229.286956z" fill="#F1F1F1" p-id="3119"></path><path d="M910.469565 614.4c-4.452174 0-6.678261-2.226087-8.904348-4.452174l-158.052174-267.130435c-2.226087-2.226087-2.226087-6.678261 0-8.904348 2.226087-2.226087 4.452174-6.678261 6.678261-6.67826l460.8-162.504348c4.452174-2.226087 11.130435 0 13.356522 4.452174l144.695652 229.286956c2.226087 2.226087 2.226087 6.678261 2.226087 8.904348s-2.226087 6.678261-6.678261 6.678261l-447.443478 200.347826h-6.678261z m-142.469565-271.582609l146.921739 247.095652 427.408696-191.443478-133.565218-211.478261-440.765217 155.826087z" fill="#979797" p-id="3120"></path><path d="M761.321739 336.13913l-158.052174 249.32174L22.26087 422.956522 164.730435 186.991304z" fill="#EDEFF1" p-id="3121"></path><path d="M603.269565 596.591304H601.043478L20.034783 434.086957c-4.452174 0-6.678261-4.452174-6.678261-6.678261-2.226087-2.226087 0-6.678261 0-8.904348L155.826087 180.313043c2.226087-2.226087 6.678261-4.452174 11.130435-4.452173l596.591304 149.147826c4.452174 0 6.678261 2.226087 6.678261 6.678261 2.226087 2.226087 0 6.678261 0 11.130434l-158.052174 249.321739c-2.226087 2.226087-4.452174 4.452174-8.904348 4.452174zM40.069565 416.278261l558.747826 155.826087 144.695652-229.286957L169.182609 200.347826 40.069565 416.278261z" fill="#979797" p-id="3122"></path></svg>