<?xml version="1.0" standalone="no"?><!DOCTYPE svg PUBLIC "-//W3C//DTD SVG 1.1//EN" "http://www.w3.org/Graphics/SVG/1.1/DTD/svg11.dtd"><svg t="1757387697386" class="icon" viewBox="0 0 1024 1024" version="1.1" xmlns="http://www.w3.org/2000/svg" p-id="12382" xmlns:xlink="http://www.w3.org/1999/xlink" width="200" height="200"><path d="M950.857143 950.857143H73.142857v-219.428572a36.571429 36.571429 0 0 0-73.142857 0v256a36.571429 36.571429 0 0 0 36.571429 36.571429h950.857142a36.571429 36.571429 0 0 0 36.571429-36.571429v-256a36.571429 36.571429 0 0 0-73.142857 0v219.428572z" fill="#515151" p-id="12383"></path><path d="M512 719.067429l-304.859429-270.994286a36.571429 36.571429 0 0 0-48.566857 54.674286l329.142857 292.571428a36.571429 36.571429 0 0 0 48.566858 0l329.142857-292.571428a36.571429 36.571429 0 1 0-48.566857-54.637715L512 719.067429z" fill="#515151" p-id="12384"></path><path d="M475.428571 0m36.571429 0l0 0q36.571429 0 36.571429 36.571429l0 658.285714q0 36.571429-36.571429 36.571428l0 0q-36.571429 0-36.571429-36.571428l0-658.285714q0-36.571429 36.571429-36.571429Z" fill="#515151" p-id="12385"></path></svg>