<?xml version="1.0" standalone="no"?><!DOCTYPE svg PUBLIC "-//W3C//DTD SVG 1.1//EN" "http://www.w3.org/Graphics/SVG/1.1/DTD/svg11.dtd"><svg t="1757656191729" class="icon" viewBox="0 0 1024 1024" version="1.1" xmlns="http://www.w3.org/2000/svg" p-id="103729" xmlns:xlink="http://www.w3.org/1999/xlink" width="200" height="200"><path d="M64 512c0 247.4 200.6 448 448 448s448-200.6 448-448c-0.1-247.4-200.6-447.9-448-448C264.6 64 64 264.6 64 512z m242-32.5c-13.4 9.5-31.9 6.2-41.4-7.2-0.1-0.1-0.2-0.2-0.2-0.3-9.5-13.4-6.1-32 7.3-41.4l56.7-39.3-54.7-32.2c-14.2-8.4-18.9-26.7-10.4-40.9 8.4-14.2 26.7-18.9 40.9-10.5l94.7 55.8c8.8 5.2 14.5 14.5 14.9 24.8 0.4 10.1-4.5 19.7-12.8 25.4l-95 65.8zM695.6 397l54.7 32.3c14.2 8.3 19 26.5 10.8 40.7-5.3 9.1-15.2 14.8-25.7 14.8-5.4 0.1-10.7-1.4-15.2-4.2l-95-55.8c-14.2-8.4-18.9-26.7-10.5-40.9 2.2-3.7 5.1-6.9 8.7-9.3l95-65.7c13.5-9.4 32.1-6.1 41.5 7.5 9.4 13.5 6.1 32.1-7.5 41.5L695.6 397zM364.4 721.9c9.7-70.1 73-126.7 149.6-126.7s139.8 56.6 149.6 126.7H364.4z" p-id="103730" fill="#515151"></path></svg>