<?xml version="1.0" standalone="no"?><!DOCTYPE svg PUBLIC "-//W3C//DTD SVG 1.1//EN" "http://www.w3.org/Graphics/SVG/1.1/DTD/svg11.dtd"><svg t="1757582393384" class="icon" viewBox="0 0 1024 1024" version="1.1" xmlns="http://www.w3.org/2000/svg" p-id="70253" xmlns:xlink="http://www.w3.org/1999/xlink" width="200" height="200"><path d="M347.904 518.570667V597.333333c0 45.312 16 83.968 48.085333 116.053334A158.122667 158.122667 0 0 0 512 761.386667a158.122667 158.122667 0 0 0 116.053333-48.085334A158.122667 158.122667 0 0 0 676.053333 597.333333v-40.192a37.333333 37.333333 0 0 0-11.093333-27.477333 37.333333 37.333333 0 0 0-27.477333-11.093333H347.904z m164.096 192a109.226667 109.226667 0 0 1-80.213333-32.981334A109.226667 109.226667 0 0 1 398.72 597.333333v-27.904h226.474667V597.333333a109.226667 109.226667 0 0 1-32.981334 80.213334 109.226667 109.226667 0 0 1-80.256 33.024z m-149.376-405.333334c-22.784 0-42.88 7.338667-60.245333 22.016a144.298667 144.298667 0 0 0-39.808 53.717334 17.834667 17.834667 0 0 0 1.194666 17.664 25.472 25.472 0 0 0 15.317334 11.221333c6.101333 1.834667 12.373333 1.152 18.858666-2.048a28.330667 28.330667 0 0 0 13.781334-14.122667c5.546667-10.325333 12.544-19.114667 21.12-26.325333 8.533333-7.253333 18.517333-10.965333 29.824-11.264 11.306667 0.298667 21.248 4.138667 29.824 11.562667 8.533333 7.466667 15.616 16.341333 21.12 26.666666a26.624 26.624 0 0 0 13.653333 13.653334 25.6 25.6 0 0 0 18.602667 1.450666 26.581333 26.581333 0 0 0 15.488-11.008 17.109333 17.109333 0 0 0 1.408-17.493333 144.085333 144.085333 0 0 0-39.850667-53.674667A90.837333 90.837333 0 0 0 362.666667 305.237333z m298.666667 0c-22.784 0-42.88 7.338667-60.245334 22.016a144.298667 144.298667 0 0 0-39.808 53.717334 17.834667 17.834667 0 0 0 1.194667 17.664 25.472 25.472 0 0 0 15.317333 11.221333c6.101333 1.834667 12.373333 1.152 18.858667-2.048a28.330667 28.330667 0 0 0 13.781333-14.122667 84.48 84.48 0 0 1 20.906667-26.538666c8.704-7.381333 18.730667-11.050667 30.037333-11.050667 11.306667 0 21.333333 3.797333 30.037334 11.349333 8.704 7.594667 15.658667 16.554667 20.906666 26.88a26.624 26.624 0 0 0 13.653334 13.653334 25.6 25.6 0 0 0 18.602666 1.450666 26.581333 26.581333 0 0 0 15.488-11.008 17.109333 17.109333 0 0 0 1.408-17.493333 144.085333 144.085333 0 0 0-39.850666-53.674667 90.837333 90.837333 0 0 0-60.288-22.016zM512.085333 917.333333a394.837333 394.837333 0 0 1-158.08-31.914666 409.429333 409.429333 0 0 1-128.768-86.613334 409.258667 409.258667 0 0 1-86.613333-128.682666 394.453333 394.453333 0 0 1-31.957333-158.037334c0-56.064 10.666667-108.8 31.914666-158.08a409.429333 409.429333 0 0 1 86.613334-128.768 409.258667 409.258667 0 0 1 128.682666-86.613333 394.453333 394.453333 0 0 1 158.037334-31.957333c56.064 0 108.8 10.666667 158.08 31.914666a409.429333 409.429333 0 0 1 128.725333 86.613334 409.258667 409.258667 0 0 1 86.698667 128.682666 394.453333 394.453333 0 0 1 31.914666 158.037334c0 56.064-10.666667 108.8-31.914666 158.08a409.429333 409.429333 0 0 1-86.613334 128.725333 409.258667 409.258667 0 0 1-128.682666 86.698667 394.453333 394.453333 0 0 1-158.037334 31.914666zM512 853.333333c95.274667 0 176-33.066667 242.133333-99.2C820.266667 688 853.333333 607.274667 853.333333 512c0-95.274667-33.066667-176-99.2-242.133333C688 203.733333 607.274667 170.666667 512 170.666667c-95.274667 0-176 33.066667-242.133333 99.2C203.733333 336 170.666667 416.725333 170.666667 512c0 95.274667 33.066667 176 99.2 242.133333C336 820.266667 416.725333 853.333333 512 853.333333z" p-id="70254" fill="#515151"></path></svg>