<?xml version="1.0" standalone="no"?><!DOCTYPE svg PUBLIC "-//W3C//DTD SVG 1.1//EN" "http://www.w3.org/Graphics/SVG/1.1/DTD/svg11.dtd"><svg t="1757656288764" class="icon" viewBox="0 0 1024 1024" version="1.1" xmlns="http://www.w3.org/2000/svg" p-id="107277" xmlns:xlink="http://www.w3.org/1999/xlink" width="200" height="200"><path d="M753.461728 154.232099c1.264198 6.320988 3.792593 12.641975 7.585186 17.698765 2.528395 2.528395 6.320988 3.792593 8.849382 6.320988 5.05679 2.528395 11.377778 3.792593 16.434568 2.528395 16.434568-1.264198 27.812346-16.434568 26.548148-32.869136-1.264198-6.320988-3.792593-12.641975-8.849382-17.698765l-7.585186-5.05679c-15.17037-7.585185-32.869136-2.528395-40.454321 12.641975-1.264198 5.05679-2.528395 10.11358-2.528395 16.434568z" fill="#515151" p-id="107278"></path><path d="M973.432099 375.466667c1.264198 17.698765-10.11358 31.604938-26.548148 34.133333-11.377778 1.264198-22.755556-3.792593-29.076544-13.906173 65.738272 225.02716-63.209877 460.167901-288.237037 525.906173-225.02716 65.738272-460.167901-63.209877-525.906172-288.237037s63.209877-460.167901 288.237037-525.906173c126.419753-36.661728 262.953086-12.641975 369.145679 64.474074-11.377778-12.641975-10.11358-31.604938 1.264197-41.718518 8.849383-8.849383 22.755556-10.11358 34.133333-5.05679C582.795062-31.604938 281.916049 13.906173 125.155556 228.819753s-111.249383 515.792593 103.664197 672.553087 515.792593 111.249383 672.553087-103.664198c88.493827-121.362963 115.041975-278.123457 72.059259-422.241975z" fill="#515151" p-id="107279"></path><path d="M946.883951 409.6c16.434568-1.264198 29.076543-16.434568 26.548148-32.869136v-1.264197c-1.264198-3.792593-2.528395-6.320988-2.528395-10.113581-7.585185-15.17037-25.283951-20.22716-40.454321-12.641975-10.11358 5.05679-16.434568 16.434568-16.434568 27.812346 1.264198 5.05679 2.528395 8.849383 3.792592 13.906173 6.320988 10.11358 17.698765 16.434568 29.076544 15.17037zM742.083951 418.449383L490.508642 662.439506c-13.906173 13.906173-36.661728 12.641975-49.303704-1.264197l-121.362963-125.155556c-11.377778-11.377778-11.377778-31.604938 0-42.982716 11.377778-11.377778 30.340741-12.641975 41.718519 0l1.264197 1.264198 103.664198 101.135802 226.291358-219.97037c11.377778-11.377778 31.604938-11.377778 42.982716 0 11.377778 11.377778 13.906173 29.076543 6.320988 42.982716zM836.898765 255.367901c1.264198 6.320988 3.792593 12.641975 7.585186 17.698766 2.528395 2.528395 6.320988 3.792593 8.849382 6.320987 5.05679 2.528395 11.377778 3.792593 16.434568 2.528395 16.434568-1.264198 27.812346-16.434568 26.548148-32.869135-1.264198-6.320988-3.792593-12.641975-8.849382-17.698766l-7.585186-5.05679c-15.17037-7.585185-32.869136-2.528395-40.454321 12.641975-2.528395 3.792593-3.792593 10.11358-2.528395 16.434568z" fill="#515151" p-id="107280"></path></svg>