<?xml version="1.0" standalone="no"?><!DOCTYPE svg PUBLIC "-//W3C//DTD SVG 1.1//EN" "http://www.w3.org/Graphics/SVG/1.1/DTD/svg11.dtd"><svg t="1758366340758" class="icon" viewBox="0 0 1026 1024" version="1.1" xmlns="http://www.w3.org/2000/svg" p-id="25255" xmlns:xlink="http://www.w3.org/1999/xlink" width="128.25" height="128"><path d="M479.100043 4.399121l420.221626 209.275071a40.703345 40.703345 0 0 1 21.242517 35.762371v525.552551c0 17.045444-10.065629 31.014259-25.145703 36.598111l-416.309256 208.430147c-11.176889 5.593036-24.585482 5.032814-35.202148 0L24.227307 809.640224a38.499193 38.499193 0 0 1-21.793556-34.641926h-0.275519V249.445747c0-17.045444 10.90137-31.014259 25.430407-37.158334l416.309256-207.879109c11.727927-5.868555 24.585482-5.868555 35.202148-0.009183zM322.072563 152.766119l349.257108 174.908665 140.257554-69.57774L461.769896 83.197563 322.072563 152.766119zM111.96175 258.097044L461.769896 433.005709l157.02748-79.073962-349.532627-174.623962-157.302999 78.789259z m-30.729556 37.167517v454.872737l356.512442 179.096554v-455.432958L81.232194 295.264561z m404.011923 633.969291l357.081848-179.096554V295.264561c-119.033405 59.236592-238.057627 119.024221-357.081848 178.536333v455.432958z" fill="#515151" p-id="25256"></path></svg>