<?xml version="1.0" standalone="no"?><!DOCTYPE svg PUBLIC "-//W3C//DTD SVG 1.1//EN" "http://www.w3.org/Graphics/SVG/1.1/DTD/svg11.dtd"><svg t="1757583782522" class="icon" viewBox="0 0 1024 1024" version="1.1" xmlns="http://www.w3.org/2000/svg" p-id="90431" xmlns:xlink="http://www.w3.org/1999/xlink" width="200" height="200"><path d="M554.837333 496.128a63.488 63.488 0 0 0 91.306667 0 65.706667 65.706667 0 0 0 18.773333-44.970667 64.768 64.768 0 0 0-18.773333-45.738666h-0.597333a62.378667 62.378667 0 0 0-44.885334-18.773334 63.317333 63.317333 0 0 0-45.738666 18.773334 62.805333 62.805333 0 0 0-18.773334 45.824c0 17.066667 6.826667 33.28 18.773334 44.885333m32.085333-58.538667c2.986667-3.84 7.850667-5.888 13.653333-5.888a17.066667 17.066667 0 0 1 13.312 5.888c2.901333 2.901333 5.205333 7.68 5.205334 13.653334a21.077333 21.077333 0 0 1-5.12 13.226666 21.333333 21.333333 0 0 1-13.397334 5.290667 19.285333 19.285333 0 0 1-13.568-5.376 17.834667 17.834667 0 0 1-5.290666-13.141333c0-5.973333 1.706667-10.752 5.205333-13.653334m-206.506667 58.538667a63.402667 63.402667 0 0 0 91.306667 0 64.853333 64.853333 0 0 0 18.773333-44.885333 64.170667 64.170667 0 0 0-18.944-45.738667h-0.426666a61.952 61.952 0 0 0-44.885334-18.858667 63.146667 63.146667 0 0 0-45.738666 18.773334 63.146667 63.146667 0 0 0 0 90.709333m31.573333-58.538667a18.517333 18.517333 0 0 1 14.165333-5.888c4.437333 0 9.898667 1.962667 12.629334 5.888h0.682666a19.029333 19.029333 0 0 1-0.682666 26.794667 21.077333 21.077333 0 0 1-12.629334 5.376 22.186667 22.186667 0 0 1-14.165333-5.376 20.224 20.224 0 0 1-5.12-13.141333 18.773333 18.773333 0 0 1 5.12-13.653334M967.168 19.2H59.562667A37.034667 37.034667 0 0 0 21.845333 55.466667V963.754667c0 20.821333 16.896 37.632 37.717334 37.632h907.605333a37.973333 37.973333 0 0 0 37.632-37.632V56.149333a37.290667 37.290667 0 0 0-37.632-36.949333m-37.973333 906.325333H97.792V314.709333h831.402667v610.816z m0-655.786666H97.792V94.122667h73.728v56.32c0 21.077333 17.493333 37.973333 38.058667 37.973333 20.48 0 37.717333-16.896 37.717333-37.973333v-56.32h126.805333v56.32c0 21.077333 16.896 37.973333 37.632 37.973333a37.546667 37.546667 0 0 0 37.717334-37.973333v-56.32h127.061333v56.32a37.802667 37.802667 0 0 0 75.605333 0v-56.32h127.317334v56.32a37.546667 37.546667 0 0 0 74.922666 0v-56.32h74.837334V269.653333zM729.429333 496.128a63.146667 63.146667 0 0 0 90.88 0 63.402667 63.402667 0 0 0 0-90.709333h-0.341333a61.952 61.952 0 0 0-44.885333-18.858667 64.170667 64.170667 0 0 0-45.653334 109.568m32.170667-58.538667c2.986667-3.925333 7.68-5.802667 13.482667-5.802666a16.213333 16.213333 0 0 1 13.056 5.802666c3.669333 2.901333 5.717333 7.68 5.717333 13.653334a17.92 17.92 0 0 1-5.717333 13.141333 19.2 19.2 0 0 1-26.538667 0 17.237333 17.237333 0 0 1-5.802667-13.226667c0-5.802667 1.877333-10.666667 5.802667-13.568m-32.170667 229.802667a64 64 0 0 0 45.653334 19.029333 62.634667 62.634667 0 0 0 44.885333-19.029333l0.341333-0.170667a62.634667 62.634667 0 0 0 19.029334-45.226666 64.768 64.768 0 0 0-19.029334-45.482667h-0.341333a60.842667 60.842667 0 0 0-44.885333-18.858667 61.866667 61.866667 0 0 0-45.653334 18.773334 65.194667 65.194667 0 0 0-18.773333 45.568c0 17.92 7.168 33.962667 18.773333 45.226666v0.170667z m32.170667-58.709333a17.92 17.92 0 0 1 26.453333 0 17.066667 17.066667 0 0 1 5.802667 13.312 16.725333 16.725333 0 0 1-5.717333 13.226666 17.578667 17.578667 0 0 1-13.056 5.632 17.493333 17.493333 0 0 1-13.482667-5.632 16.213333 16.213333 0 0 1-5.802667-13.226666c0-5.632 1.877333-9.984 5.802667-13.312M380.586667 838.656a63.658667 63.658667 0 0 0 45.738666 19.114667 62.72 62.72 0 0 0 44.885334-19.114667h0.512a65.365333 65.365333 0 0 0 18.944-45.482667 64.768 64.768 0 0 0-18.944-45.226666h-0.512a61.866667 61.866667 0 0 0-44.885334-19.114667 62.890667 62.890667 0 0 0-45.738666 19.114667 63.744 63.744 0 0 0 0 90.709333m31.573333-58.538667a18.773333 18.773333 0 0 1 14.165333-6.144c4.437333 0 9.898667 2.304 12.629334 6.144h0.682666c3.413333 3.584 5.290667 8.277333 5.290667 13.141334a20.48 20.48 0 0 1-5.290667 13.653333h-0.682666a20.309333 20.309333 0 0 1-12.629334 5.376 23.552 23.552 0 0 1-14.165333-5.461333 20.309333 20.309333 0 0 1-5.12-13.653334c-0.170667-4.778667 1.706667-9.557333 5.12-13.056M206.08 667.392a64.426667 64.426667 0 0 0 45.482667 19.029333c17.066667-0.085333 33.28-6.997333 45.226666-19.029333v-0.170667a62.122667 62.122667 0 0 0 19.370667-45.226666 64 64 0 0 0-19.370667-45.482667 62.293333 62.293333 0 0 0-45.141333-18.858667 62.293333 62.293333 0 0 0-45.568 18.773334 64.597333 64.597333 0 0 0-19.285333 45.568c0 17.066667 6.912 33.450667 19.285333 45.312z m31.744-58.709333h0.426667a18.346667 18.346667 0 0 1 13.397333-5.888c5.12 0.341333 9.813333 2.389333 13.568 5.888a19.285333 19.285333 0 0 1 0 26.538666 21.504 21.504 0 0 1-13.568 5.632 17.92 17.92 0 0 1-13.397333-5.632h-0.426667a16.725333 16.725333 0 0 1-5.546667-13.226666c0-5.632 1.962667-9.984 5.546667-13.312m-31.744 229.973333c11.946667 12.288 28.330667 19.2 45.482667 19.114667a64 64 0 0 0 45.226666-19.114667 63.658667 63.658667 0 0 0 19.370667-45.482667 63.402667 63.402667 0 0 0-19.370667-45.226666 62.976 62.976 0 0 0-45.141333-19.114667 62.976 62.976 0 0 0-45.568 19.114667 64 64 0 0 0-19.285333 45.226666c0.085333 17.066667 6.997333 33.536 19.285333 45.482667m31.744-58.538667h0.426667a16.981333 16.981333 0 0 1 13.312-6.144c4.778667 0 9.386667 2.304 13.568 6.144 3.413333 3.498667 5.290667 8.192 5.290666 13.141334a20.650667 20.650667 0 0 1-5.290666 13.653333c-4.181333 2.645333-8.789333 5.376-13.568 5.376a20.906667 20.906667 0 0 1-13.312-5.461333h-0.426667a17.92 17.92 0 0 1-5.546667-13.653334c0-5.376 1.962667-10.154667 5.546667-13.056m317.013333-112.725333a63.317333 63.317333 0 0 0 90.709334 0l0.597333-0.170667a64.170667 64.170667 0 0 0 18.944-45.226666 66.133333 66.133333 0 0 0-18.944-45.482667h-0.597333a61.354667 61.354667 0 0 0-44.8-18.858667 62.293333 62.293333 0 0 0-45.824 18.773334 63.829333 63.829333 0 0 0-18.773334 45.568c0 17.92 6.997333 34.048 18.773334 45.312z m32.170667-58.709333c3.498667-3.84 8.533333-5.973333 13.653333-5.888 5.290667 0 9.898667 2.389333 13.312 5.888a19.541333 19.541333 0 0 1 0 26.624 19.114667 19.114667 0 0 1-26.88-0.085334 16.64 16.64 0 0 1-5.290666-13.226666c0-5.632 1.706667-9.984 5.205333-13.312m-32.170667 229.973333a63.146667 63.146667 0 0 0 90.709334 0h0.597333a65.877333 65.877333 0 0 0 18.944-45.482667 65.365333 65.365333 0 0 0-18.944-45.226666h-0.597333a62.122667 62.122667 0 0 0-44.8-19.114667 62.976 62.976 0 0 0-45.824 19.114667 63.146667 63.146667 0 0 0-18.773334 45.226666c0 17.493333 6.826667 34.048 18.773334 45.482667m32.085333-58.538667a16.64 16.64 0 0 1 13.653333-6.144c5.12 0 9.813333 2.304 13.312 6.144 3.328 3.584 5.12 8.277333 5.12 13.141334a20.906667 20.906667 0 0 1-5.12 13.653333 22.357333 22.357333 0 0 1-13.312 5.376 20.309333 20.309333 0 0 1-13.653333-5.461333 17.92 17.92 0 0 1-5.12-13.653334c0-5.376 1.706667-10.154667 5.12-13.056M380.586667 667.392a62.976 62.976 0 0 0 90.624 0l0.597333-0.170667a63.658667 63.658667 0 0 0 0-90.709333h-0.512a61.098667 61.098667 0 0 0-44.885333-18.858667 62.122667 62.122667 0 0 0-45.738667 18.773334 64.170667 64.170667 0 0 0-19.029333 45.568c0 17.92 7.168 33.962667 19.029333 45.226666v0.170667z m31.658666-58.709333a20.138667 20.138667 0 0 1 14.165334-5.888c4.864 0.170667 9.386667 2.218667 12.629333 5.888h0.682667a19.2 19.2 0 0 1 0 26.453333h-0.682667a17.322667 17.322667 0 0 1-12.629333 5.717333 19.968 19.968 0 0 1-14.165334-5.632 19.370667 19.370667 0 0 1 0-26.538666" fill="#515151" p-id="90432"></path></svg>