<?xml version="1.0" standalone="no"?><!DOCTYPE svg PUBLIC "-//W3C//DTD SVG 1.1//EN" "http://www.w3.org/Graphics/SVG/1.1/DTD/svg11.dtd"><svg t="1758246517944" class="icon" viewBox="0 0 1024 1024" version="1.1" xmlns="http://www.w3.org/2000/svg" p-id="16534" xmlns:xlink="http://www.w3.org/1999/xlink" width="128" height="128"><path d="M512 514m-448 0a448 448 0 1 0 896 0 448 448 0 1 0-896 0Z" fill="#69B452" p-id="16535"></path><path d="M702.76 292.47l0 477.27-381.52 0 0-477.27 381.52 0Z" fill="#D1F0C7" p-id="16536"></path><path d="M666.76 375.97l0 356.48-309.52 0 0-356.48 309.52 0Z" fill="#FFFFFF" p-id="16537"></path><path d="M450.19 444.27v29.69h110.43L454.64 657.3l34.48-0.09 105.81-183.25v-29.69H450.19z" fill="#69B452" p-id="16538"></path><path d="M389.32 254.25l65.32 0 0 65.32-65.32 0 0-65.32Z" fill="#FFFFFF" p-id="16539"></path><path d="M562.27 254.25l65.32 0 0 65.32-65.32 0 0-65.32Z" fill="#FFFFFF" p-id="16540"></path></svg>