<?xml version="1.0" standalone="no"?><!DOCTYPE svg PUBLIC "-//W3C//DTD SVG 1.1//EN" "http://www.w3.org/Graphics/SVG/1.1/DTD/svg11.dtd"><svg t="1757656271304" class="icon" viewBox="0 0 1677 1024" version="1.1" xmlns="http://www.w3.org/2000/svg" p-id="106162" xmlns:xlink="http://www.w3.org/1999/xlink" width="327.5390625" height="200"><path d="M483.798 832.658l38.109 38.108 76.226-76.215-38.117-38.109-76.218 76.217zM881.434 0h-53.895v134.73h53.895v-134.73zM827.54 1023.999h53.895v-134.733h-53.895v134.733zM342.488 538.942h134.735v-53.892h-134.735v53.892zM1100.844 229.763l38.113 38.106 76.223-76.224-38.118-38.106-76.218 76.224zM1231.754 485.049v53.892h134.739v-53.892h-134.739zM854.488 215.572c-163.709 0-296.423 132.714-296.423 296.422 0 163.715 132.714 296.431 296.423 296.431s296.418-132.716 296.418-296.431c0-163.708-132.709-296.422-296.418-296.422zM854.488 750.743c-131.858 0-238.748-106.889-238.748-238.75 0-131.856 106.89-238.749 238.748-238.749s238.745 106.894 238.745 238.749c0 131.863-106.888 238.75-238.745 238.75zM1093.775 801.625l76.22 76.215 38.113-38.108-76.22-76.215-38.113 38.108zM605.196 222.686l-76.215-76.215-38.109 38.106 76.218 76.218 38.106-38.109z" fill="#515151" p-id="106163"></path></svg>