<?xml version="1.0" standalone="no"?><!DOCTYPE svg PUBLIC "-//W3C//DTD SVG 1.1//EN" "http://www.w3.org/Graphics/SVG/1.1/DTD/svg11.dtd"><svg t="1758246563854" class="icon" viewBox="0 0 1024 1024" version="1.1" xmlns="http://www.w3.org/2000/svg" p-id="18687" xmlns:xlink="http://www.w3.org/1999/xlink" width="128" height="128"><path d="M0 512a512 512 0 1 0 1024 0A512 512 0 1 0 0 512z" fill="#FF8810" p-id="18688"></path><path d="M291.806 727.097l148.451-41.686 15.29-15.29-104.543-104.543-15.42 15.551-43.778 145.968z m76.709-178.246l104.543 104.544 204.12-205.036-104.543-104.543-204.12 205.035z m355.838-210l-42.078-42.08c-24.045-24.044-38.42-24.044-62.334 0l-29.795 29.926L694.689 431.24l29.664-29.664c24.045-24.175 24.045-38.42 0-62.464z m-285.925-39.074c-24.045-24.044-38.42-24.044-62.465 0l-99.446 99.316-17.38-17.38L363.678 277.17a61.55 61.55 0 0 1 87.033 0l57.629 57.63-17.511 18.033-52.272-52.271z" fill="#FFFFFF" p-id="18689"></path><path d="M320.163 407.849l34.76-34.891 17.512 17.51-34.891 34.761-2.091-2.09 19.47 19.47 52.273-52.271 17.38 17.38-52.272 52.272 5.358 5.227-17.38 18.295-83.765-83.765 17.51-17.38 26.136 26.135zM563.88 651.696l52.271 52.271 26.136 26.136 81.936-81.936c24.175-24.044 24.175-38.42 0-62.464l-54.886-55.016 17.38-17.38 60.113 60.112a61.55 61.55 0 0 1 0 87.032l-87.163 87.032-17.38 17.38-17.38-17.38-86.249-86.248 17.38-17.38 7.842 7.84z" fill="#FFFFFF" p-id="18690"></path><path d="M633.662 616.804l-52.271 52.272-17.511-17.38 52.271-52.272 17.511 17.38z m8.625 26.136l17.38 17.38-43.516 43.517-17.38-17.38 43.516-43.517z" fill="#FFFFFF" p-id="18691"></path></svg>