<?xml version="1.0" encoding="UTF-8"?>
<svg width="200" height="200" viewBox="0 0 200 200" xmlns="http://www.w3.org/2000/svg">
  <!-- 背景 -->
  <rect width="200" height="200" fill="#FFF8E1"/>
  
  <!-- 妈妈的脸 -->
  <circle cx="100" cy="100" r="60" fill="#FFDBCB"/>
  
  <!-- 头发 -->
  <path d="M50,70 Q60,40 100,45 Q140,40 150,70 Q155,85 145,95 Q140,90 130,85 Q120,80 100,82 Q80,80 70,85 Q60,90 55,95 Q45,85 50,70 Z" fill="#8D6E63"/>
  
  <!-- 眼睛 -->
  <ellipse cx="85" cy="90" rx="8" ry="6" fill="#FFFFFF"/>
  <ellipse cx="115" cy="90" rx="8" ry="6" fill="#FFFFFF"/>
  <circle cx="85" cy="90" r="4" fill="#4A4A4A"/>
  <circle cx="115" cy="90" r="4" fill="#4A4A4A"/>
  <circle cx="86" cy="88" r="1.5" fill="#FFFFFF"/>
  <circle cx="116" cy="88" r="1.5" fill="#FFFFFF"/>
  
  <!-- 眉毛 -->
  <path d="M78,82 Q85,80 92,82" stroke="#8D6E63" stroke-width="2" fill="none"/>
  <path d="M108,82 Q115,80 122,82" stroke="#8D6E63" stroke-width="2" fill="none"/>
  
  <!-- 鼻子 -->
  <ellipse cx="100" cy="105" rx="3" ry="5" fill="#FFB6B6" opacity="0.6"/>
  
  <!-- 嘴巴 - 温暖的笑容 -->
  <path d="M85,115 Q100,125 115,115" stroke="#FF6B6B" stroke-width="3" fill="none"/>
  
  <!-- 笑纹 -->
  <path d="M75,110 Q80,115 85,110" stroke="#FFDBCB" stroke-width="1" fill="none" opacity="0.7"/>
  <path d="M115,110 Q120,115 125,110" stroke="#FFDBCB" stroke-width="1" fill="none" opacity="0.7"/>
  
  <!-- 脸颊红晕 -->
  <circle cx="70" cy="110" r="8" fill="#FFB6B6" opacity="0.4"/>
  <circle cx="130" cy="110" r="8" fill="#FFB6B6" opacity="0.4"/>
  
  <!-- 衣服 -->
  <rect x="60" y="150" width="80" height="50" fill="#E1BEE7" rx="10"/>
  <circle cx="100" cy="165" r="3" fill="#9C27B0"/>
  <circle cx="100" cy="180" r="3" fill="#9C27B0"/>
  
  <!-- 装饰性元素 -->
  <g opacity="0.6">
    <!-- 爱心 -->
    <path d="M30,30 Q35,25 40,30 Q45,25 50,30 Q50,40 40,50 Q35,45 30,40 Q30,35 30,30 Z" fill="#FF69B4"/>
    <path d="M150,170 Q155,165 160,170 Q165,165 170,170 Q170,180 160,190 Q155,185 150,180 Q150,175 150,170 Z" fill="#FF69B4"/>
    
    <!-- 星星 -->
    <path d="M170,40 L172,46 L178,46 L173,50 L175,56 L170,52 L165,56 L167,50 L162,46 L168,46 Z" fill="#FFD700"/>
    <path d="M40,170 L42,176 L48,176 L43,180 L45,186 L40,182 L35,186 L37,180 L32,176 L38,176 Z" fill="#FFD700"/>
  </g>
  
  <!-- 温暖光晕 -->
  <circle cx="100" cy="100" r="80" fill="none" stroke="#FFD700" stroke-width="2" opacity="0.3"/>
</svg>